<?xml version="1.0" encoding="utf-8"?>
<!-- Generator: Adobe Illustrator 27.7.0, SVG Export Plug-In . SVG Version: 6.00 Build 0)  -->
<svg version="1.1" id="Layer_1" xmlns="http://www.w3.org/2000/svg" xmlns:xlink="http://www.w3.org/1999/xlink" x="0px" y="0px"
	 viewBox="0 0 1002.86 310.5" style="enable-background:new 0 0 1002.86 310.5;" xml:space="preserve">
<style type="text/css">
	.st0{fill:#5E63AD;}
	.st1{fill:#EA2027;}
	.st2{fill:#5E64AE;}
	.st3{fill:#5E65AE;}
	.st4{fill:#5D64AE;}
	.st5{fill:#CB252B;}
	.st6{fill:#C8252B;}
	.st7{fill:#ADA6CE;}
	.st8{fill:#B7B5D3;}
	.st9{fill:#A29FCB;}
	.st10{fill:#9796C6;}
</style>
<g>
	<path class="st0" d="M143.2,65.53c0,2.16-0.02,4.32,0.01,6.48c0.01,0.65-0.09,1.07-0.84,1.26c-8.65,2.21-16.75,5.69-24.35,10.42
		c-13.26,8.27-23.54,19.3-30.89,33.07c-2.84,5.32-5.08,10.88-6.77,16.67c-0.23,0.8-0.7,1.08-1.43,1.08
		c-4.48,0.02-8.97,0.03-13.45,0.04c-1.16,0-0.86-0.85-0.71-1.42c0.52-2,1.09-4,1.72-5.97c3.19-9.97,7.7-19.31,13.66-27.93
		c6.61-9.55,14.65-17.71,24.04-24.5c8.48-6.13,17.71-10.9,27.71-14.09c3.07-0.98,6.19-1.82,9.31-2.67c1.93-0.53,1.97-0.46,1.98,1.47
		c0.01,2.03,0,4.07,0,6.1C143.19,65.53,143.19,65.53,143.2,65.53z"/>
	<path class="st0" d="M263.93,136.12c-3.46,0-6.52,0.01-9.58,0c-1.45-0.01-2.91-0.14-4.35-0.05c-1.17,0.08-1.61-0.43-1.88-1.47
		c-1.83-7.1-4.65-13.82-8.16-20.24c-6.33-11.59-14.98-21.2-25.73-28.8c-7.76-5.48-16.19-9.74-25.39-12.31
		c-0.98-0.27-1.41-0.66-1.37-1.78c0.16-3.64,0.17-7.28,0.29-10.93c0.03-0.98,0.24-1.95,0.4-3.24c18.87,4.85,35.21,13.93,48.76,27.79
		C250.91,99.41,259.81,116.47,263.93,136.12z"/>
	<path class="st0" d="M187.1,255.09c0.01-4.54,0.02-9.08,0.02-13.63c0.04-0.1,0.08-0.2,0.12-0.29c2.83-1.02,5.68-1.98,8.48-3.08
		c10.47-4.12,19.8-10.02,27.94-17.81c8.01-7.66,14.51-16.42,18.98-26.57c2.03-4.61,3.53-9.46,5.18-14.23
		c0.36-1.04,0.83-1.39,1.93-1.37c4.07,0.06,8.14,0.01,12.21,0.01c0.48,0,0.96,0.06,1.63,0.11c-0.34,1.49-0.6,2.82-0.94,4.13
		c-3.51,13.72-9.56,26.21-18.21,37.42c-8.32,10.78-18.43,19.53-30.25,26.27c-7.19,4.1-14.81,7.23-22.78,9.47
		c-1.11,0.31-2.24,0.6-3.34,0.96c-0.84,0.27-1.07-0.06-0.99-0.83C187.09,255.47,187.09,255.28,187.1,255.09z"/>
	<path class="st0" d="M139.91,256.53c-19.2-4.81-35.59-14.12-49.23-28.15c-13.89-14.29-22.61-31.35-26.79-50.75
		c2.62,0,5.08-0.03,7.55,0.01c2.35,0.04,4.71,0.18,7.06,0.23c0.7,0.01,0.99,0.27,1.17,0.97c2.88,10.81,7.47,20.82,14.13,29.82
		c6.25,8.44,13.7,15.64,22.55,21.37c7.18,4.65,14.82,8.25,23.01,10.73c0.38,0.11,0.77,0.93,0.77,1.41
		c-0.02,3.72-0.13,7.44-0.21,11.16C139.9,254.28,139.91,255.23,139.91,256.53z"/>
	<path class="st0" d="M156.21,81.7c-0.02-2.12-0.04-4.23-0.04-6.35c-0.01-12.04-0.01-24.07-0.01-36.11c0-0.04,0-0.08,0-0.12
		c0.01-2.51,0.03-2.51,2.47-2.5c3.78,0.02,7.55,0.04,11.33-0.02c1.1-0.02,1.42,0.3,1.42,1.4c-0.05,13.61-0.06,27.23-0.08,40.84
		c0,0.58,0,1.16,0.01,1.74c0.05,2.15-0.19,2.36-2.3,2.14c-0.69-0.07-1.4-0.01-2.15-0.01c-0.1,1.91-0.27,3.68-0.27,5.46
		c-0.01,12.29,0,24.57,0.01,36.86c0,2.28,0.01,2.28-2.38,2.28c-3.11,0-3.11,0-3.11-3.16c0.01-13.41,0.01-26.81,0.02-40.22
		c0-0.36-0.04-0.73-0.08-1.22c-1.14,0-2.21,0.08-3.27-0.03c-0.49-0.05-0.95-0.46-1.43-0.7C156.3,81.9,156.25,81.8,156.21,81.7z"/>
	<path class="st0" d="M88.59,164.94c-1.18,0-2.21,0-3.24,0c-13.37,0-26.74,0-40.1,0c-0.42,0-0.83-0.02-1.25-0.01
		c-0.72,0.02-1.03-0.26-1.03-1.03c0.02-4.28,0.02-8.55-0.01-12.83c-0.01-0.89,0.36-1.12,1.19-1.12c14.49,0.02,28.98,0.02,43.47,0
		c1.11,0,1.43,0.43,1.13,1.43c-0.02,0.08-0.09,0.15-0.1,0.22c-0.53,2.42-0.14,2.87,2.32,2.87c13.78-0.01,27.57,0,41.35-0.03
		c1.01,0,1.43,0.28,1.38,1.32c-0.06,1.08-0.04,2.16,0.01,3.24c0.04,0.91-0.35,1.29-1.24,1.27c-1.16-0.02-2.32,0.02-3.49,0.01
		c-12.83-0.02-25.66-0.04-38.48-0.06c-1.7,0-1.9,0.2-1.9,1.92C88.59,163.02,88.59,163.89,88.59,164.94z"/>
	<path class="st0" d="M156.39,232.75c1.08-0.01,2.16-0.07,3.23-0.03c1.1,0.04,1.52-0.34,1.51-1.51
		c-0.04-13.83-0.03-27.65-0.04-41.48c0-2.15,0-2.15,2.14-2.12c0.21,0,0.41,0.01,0.62,0.02c2.73,0.02,2.72,0.02,2.71,2.8
		c-0.01,13.58-0.01,27.15-0.04,40.73c0,1.1,0.37,1.62,1.52,1.55c1.03-0.06,2.06-0.01,3.27-0.01c0,2.03,0,3.97,0,5.9
		c0.01,12.45,0.02,24.91,0.04,37.36c0,2.34,0.02,2.35-2.27,2.35c-3.74,0.01-7.47,0.03-11.21-0.01c-0.52-0.01-1.03-0.32-1.55-0.49
		c0.01-0.04,0.03-0.08,0.02-0.11c-0.02-0.07-0.05-0.13-0.08-0.2c-0.03-0.91-0.08-1.82-0.08-2.73c-0.01-12.82-0.01-25.63-0.01-38.45
		c0-1.12,0.08-2.23,0.12-3.35C156.32,232.91,156.35,232.83,156.39,232.75z"/>
	<path class="st0" d="M226.57,160.31c-0.22,0-0.45,0-0.67,0c-0.11,0-0.22,0-0.33,0c-0.22,0-0.45,0-0.67,0c-0.11,0-0.22,0-0.33,0
		c-0.22,0-0.45,0-0.67,0c-0.11,0-0.22,0-0.33,0c-0.22,0-0.45,0-0.67,0c-0.11,0-0.22,0-0.33,0c-0.22,0-0.45,0-0.67,0
		c-0.11,0-0.22,0-0.33,0c-0.22,0-0.45,0-0.67,0c-0.11,0-0.22,0-0.33,0c-0.22,0-0.45,0-0.67,0c-0.11,0-0.22,0-0.33,0
		c-0.22,0-0.45,0-0.67,0c-0.11,0-0.22,0-0.33,0c-0.22,0-0.45,0-0.67,0c-0.11,0-0.22,0-0.33,0c-0.22,0-0.45,0-0.67,0
		c-0.11,0-0.22,0-0.33,0c-0.22,0-0.45,0-0.67,0c-0.11,0-0.22,0-0.33,0c-0.22,0-0.45,0-0.67,0c-0.11,0-0.22,0-0.33,0
		c-0.22,0-0.45,0-0.67,0c-0.11,0-0.22,0-0.33,0c-0.22,0-0.45,0-0.67,0c-0.11,0-0.22,0-0.33,0c-0.22,0-0.45,0-0.67,0
		c-0.11,0-0.22,0-0.33,0c-0.22,0-0.45,0-0.67,0c-0.11,0-0.22,0-0.33,0c-0.22,0-0.45,0-0.67,0c-0.11,0-0.22,0-0.33,0
		c-0.22,0-0.45,0-0.67,0c-0.11,0-0.22,0-0.33,0c-0.22,0-0.45,0-0.67,0c-0.11,0-0.22,0-0.33,0c-0.22,0-0.45,0-0.67,0
		c-0.11,0-0.22,0-0.33,0c-0.22,0-0.45,0-0.67,0c-0.11,0-0.22,0-0.33,0c-0.22,0-0.45,0-0.67,0c-0.11,0-0.22,0-0.33,0
		c-3.03,0.04-6.06,0.04-9.08,0.15c-0.97,0.03-1.38-0.22-1.33-1.22c0.05-1.2,0.06-2.41-0.01-3.61c-0.06-0.97,0.35-1.17,1.24-1.17
		c8.01,0.03,16.01,0.02,24.02,0.02c5.93,0,11.87,0,17.8,0c0.45,0,0.9,0,1.53,0c0-1.15,0.04-2.22-0.01-3.27
		c-0.04-0.88,0.25-1.3,1.19-1.29c10.16,0.03,20.33,0.06,30.49,0.04c1.05,0,1.21,0.38,1.2,1.31c-0.05,3.98-0.03,7.97-0.01,11.95
		c0.01,1.58-0.06,1.68-1.67,1.68c-8.3,0-16.6-0.01-24.89,0c-1.62,0-3.24,0-4.85,0.09c-1.04,0.06-1.57-0.22-1.45-1.37
		c0.07-0.7-0.05-1.42,0.02-2.11c0.1-0.97-0.37-1.23-1.23-1.22c-2.24,0.03-4.48,0.02-6.72,0.03c-0.11,0-0.22,0-0.33,0
		c-0.22,0-0.45,0-0.67,0c-0.11,0-0.22,0-0.33,0c-0.22,0-0.45,0-0.67,0c-0.11,0-0.22,0-0.33,0c-0.22,0-0.45,0-0.67,0
		c-0.11,0-0.22,0-0.33,0c-0.22,0-0.45,0-0.67,0C226.79,160.31,226.68,160.31,226.57,160.31z"/>
	<path class="st1" d="M149.67,159.71c0.07-1.92-0.45-3.89,0.49-5.74c0.88-1.22,1.97-2.34,2.59-3.67c1.11-2.41,3.23-3.6,5.35-4.68
		c1.44-0.73,3.19-0.9,4.83-1.16c0.99-0.15,2.03-0.01,3.04,0.04c2.74,0.14,5.11,1.31,6.9,3.25c1.36,1.47,2.22,3.4,3.35,5.09
		c0.34,0.51,0.85,0.91,1.28,1.37c0.96,2.81,0.7,5.54-0.52,8.22c-0.48,0.42-1,0.81-1.45,1.27c-1.17,1.22-2.14,2.69-3.48,3.66
		c-4.23,3.07-8.88,4.25-13.85,1.98c-1.58-0.72-3.16-1.86-4.19-3.22c-0.91-1.21-1.61-2.63-2.58-3.84c-0.59-0.73-1.06-1.54-1.59-2.32
		c0,0,0.02,0.02,0.02,0.02C149.8,159.9,149.73,159.8,149.67,159.71z"/>
	<path class="st2" d="M155.17,197.09c-7.87-1.86-14.57-5.45-20.1-11.01c-4.97-4.99-8.37-10.98-10.33-17.76
		c-0.69-2.39-0.67-2.4,1.84-2.39c1.12,0.01,2.51-0.37,3.27,0.16c0.73,0.51,0.75,1.98,1.16,3c1.79,4.51,4.25,8.57,7.61,12.13
		c4.45,4.71,9.75,7.91,15.91,9.76c0.81,0.24,1.01,0.56,0.9,1.4c-0.14,1.1-0.04,2.24-0.08,3.35
		C155.33,196.16,155.23,196.59,155.17,197.09z"/>
	<path class="st3" d="M200.53,165.93c3.1,0,3.15,0.01,2.22,2.97c-4.27,13.53-13.16,22.56-26.58,27.13c-0.9,0.31-1.82,0.55-2.74,0.8
		c-0.94,0.27-1.43-0.04-1.38-1.08c0.04-0.95,0.06-1.91-0.01-2.86c-0.07-1.02,0.35-1.55,1.3-1.95c2.93-1.24,5.97-2.34,8.68-3.95
		c7.48-4.44,12.39-11.03,15.05-19.27c0.48-1.48,1.1-2.06,2.58-1.79C199.94,165.98,200.24,165.93,200.53,165.93z"/>
	<path class="st4" d="M172.51,116.68c8.77,2.15,16.11,6.17,21.91,12.74c4.68,5.3,7.75,11.47,9.36,18.55c-1.9,0-3.64,0.04-5.36-0.04
		c-0.29-0.01-0.7-0.52-0.81-0.87c-3.45-11.29-10.74-19.01-21.67-23.34c-0.73-0.29-1.46-0.69-2.22-0.77
		c-1.16-0.13-1.26-0.76-1.22-1.7C172.55,119.8,172.51,118.36,172.51,116.68z"/>
	<path class="st3" d="M155.36,118.05c0,1.77,0.03,3.38-0.03,4.98c-0.01,0.24-0.39,0.61-0.67,0.69c-6.9,2.04-12.71,5.79-17.39,11.24
		c-3.19,3.72-5.53,7.95-6.88,12.68c-0.29,1.03-0.79,1.43-1.84,1.36c-1.07-0.07-2.16-0.01-3.23-0.02c-0.84,0-1.19-0.27-0.94-1.22
		c2.87-10.72,8.84-19.15,18.35-25.01c3.27-2.01,6.72-3.59,10.45-4.5C153.84,118.1,154.54,118.13,155.36,118.05z"/>
	<path class="st5" d="M149.84,159.97c0.53,0.78,1.01,1.59,1.59,2.32c0.98,1.21,1.68,2.64,2.58,3.84c1.03,1.36,2.61,2.5,4.19,3.22
		c4.97,2.27,9.63,1.09,13.85-1.98c1.34-0.97,2.31-2.44,3.48-3.66c0.44-0.46,0.96-0.85,1.45-1.27c-0.88,3.19-3.08,5.36-5.77,7
		c-9.12,5.55-18.75-0.14-21.28-8.61C149.85,160.55,149.87,160.25,149.84,159.97z"/>
	<path class="st6" d="M177.5,154.22c-0.43-0.45-0.94-0.85-1.28-1.37c-1.13-1.69-1.99-3.62-3.35-5.09c-1.79-1.95-4.16-3.11-6.9-3.25
		c-1.02-0.05-2.06-0.2-3.04-0.04c-1.64,0.25-3.39,0.43-4.83,1.16c-2.12,1.07-4.24,2.27-5.35,4.68c-0.62,1.34-1.71,2.46-2.59,3.67
		c0.42-2.63,1.77-4.79,3.59-6.62c2.72-2.72,6.1-4.31,9.93-4.26c3.91,0.05,7.43,1.41,10.26,4.33
		C175.81,149.36,177.12,151.53,177.5,154.22z"/>
	<path class="st7" d="M187.1,255.09c0,0.19-0.01,0.38-0.01,0.56C187.09,255.47,187.09,255.28,187.1,255.09z"/>
	<path class="st8" d="M217.6,160.31c0.11,0,0.22,0,0.33,0C217.82,160.31,217.71,160.31,217.6,160.31z"/>
	<path class="st0" d="M156.26,277.52c0.03,0.07,0.06,0.13,0.08,0.2c0.01,0.03-0.01,0.07-0.02,0.11c-0.04-0.07-0.09-0.13-0.11-0.2
		C156.2,277.6,156.24,277.56,156.26,277.52z"/>
	<path class="st8" d="M212.62,160.31c0.11,0,0.22,0,0.33,0C212.84,160.31,212.73,160.31,212.62,160.31z"/>
	<path class="st8" d="M213.61,160.31c0.11,0,0.22,0,0.33,0C213.83,160.31,213.72,160.31,213.61,160.31z"/>
	<path class="st8" d="M214.61,160.31c0.11,0,0.22,0,0.33,0C214.83,160.31,214.72,160.31,214.61,160.31z"/>
	<path class="st8" d="M215.61,160.31c0.11,0,0.22,0,0.33,0C215.83,160.31,215.72,160.31,215.61,160.31z"/>
	<path class="st8" d="M216.6,160.31c0.11,0,0.22,0,0.33,0C216.82,160.31,216.71,160.31,216.6,160.31z"/>
	<path class="st8" d="M210.62,160.31c0.11,0,0.22,0,0.33,0C210.84,160.31,210.73,160.31,210.62,160.31z"/>
	<path class="st8" d="M218.6,160.31c0.11,0,0.22,0,0.33,0C218.81,160.31,218.71,160.31,218.6,160.31z"/>
	<path class="st8" d="M219.59,160.31c0.11,0,0.22,0,0.33,0C219.81,160.31,219.7,160.31,219.59,160.31z"/>
	<path class="st8" d="M220.59,160.31c0.11,0,0.22,0,0.33,0C220.81,160.31,220.7,160.31,220.59,160.31z"/>
	<path class="st8" d="M221.59,160.31c0.11,0,0.22,0,0.33,0C221.8,160.31,221.69,160.31,221.59,160.31z"/>
	<path class="st0" d="M222.58,160.31c0.11,0,0.22,0,0.33,0C222.8,160.31,222.69,160.31,222.58,160.31z"/>
	<path class="st0" d="M223.58,160.31c0.11,0,0.22,0,0.33,0C223.8,160.31,223.69,160.31,223.58,160.31z"/>
	<path class="st0" d="M224.57,160.31c0.11,0,0.22,0,0.33,0C224.79,160.31,224.68,160.31,224.57,160.31z"/>
	<path class="st0" d="M225.57,160.31c0.11,0,0.22,0,0.33,0C225.79,160.31,225.68,160.31,225.57,160.31z"/>
	<path class="st0" d="M226.57,160.31c0.11,0,0.22,0,0.33,0C226.79,160.31,226.68,160.31,226.57,160.31z"/>
	<path class="st0" d="M227.56,160.31c0.11,0,0.22,0,0.33,0C227.78,160.31,227.67,160.31,227.56,160.31z"/>
	<path class="st0" d="M228.56,160.31c0.11,0,0.22,0,0.33,0C228.78,160.31,228.67,160.31,228.56,160.31z"/>
	<path class="st0" d="M229.56,160.31c0.11,0,0.22,0,0.33,0C229.78,160.31,229.67,160.31,229.56,160.31z"/>
	<path class="st0" d="M230.55,160.31c0.11,0,0.22,0,0.33,0C230.77,160.31,230.66,160.31,230.55,160.31z"/>
	<path class="st8" d="M209.63,160.31c0.11,0,0.22,0,0.33,0C209.85,160.31,209.74,160.31,209.63,160.31z"/>
	<path class="st8" d="M208.63,160.31c0.11,0,0.22,0,0.33,0C208.85,160.31,208.74,160.31,208.63,160.31z"/>
	<path class="st8" d="M207.63,160.31c0.11,0,0.22,0,0.33,0C207.85,160.31,207.74,160.31,207.63,160.31z"/>
	<path class="st8" d="M206.64,160.31c0.11,0,0.22,0,0.33,0C206.86,160.31,206.75,160.31,206.64,160.31z"/>
	<path class="st8" d="M205.64,160.31c0.11,0,0.22,0,0.33,0C205.86,160.31,205.75,160.31,205.64,160.31z"/>
	<path class="st8" d="M204.65,160.3c0.11,0,0.22,0,0.33,0C204.86,160.3,204.75,160.3,204.65,160.3z"/>
	<path class="st5" d="M149.67,159.71c0.06,0.09,0.13,0.18,0.19,0.28C149.8,159.9,149.73,159.8,149.67,159.71z"/>
	<path class="st9" d="M156.39,232.75c-0.03,0.08-0.07,0.16-0.1,0.25C156.32,232.91,156.35,232.83,156.39,232.75z"/>
	<path class="st7" d="M187.24,241.17c-0.04,0.1-0.08,0.2-0.12,0.29C187.16,241.37,187.2,241.27,187.24,241.17z"/>
	<path class="st10" d="M156.21,81.7c0.05,0.1,0.09,0.19,0.14,0.29C156.3,81.9,156.25,81.8,156.21,81.7z"/>
	<path class="st8" d="M211.62,160.31c0.11,0,0.22,0,0.33,0C211.84,160.31,211.73,160.31,211.62,160.31z"/>
	<g>
		<path d="M388.41,82.46l-10.54,1.95c0.46-2.1,0.69-3.86,0.69-5.27c0-9.09-5.52-13.63-16.55-13.63c-8.71,0-13.06,3.13-13.06,9.39
			c0,4.7,4.87,8.72,14.6,12.08c18.79,6.45,28.18,16,28.18,28.64c0,7.41-2.63,13.35-7.9,17.84c-5.27,4.49-12.28,6.73-21.02,6.73
			c-19.36,0-29.04-7.5-29.04-22.51c0-1.22,0.1-2.73,0.29-4.52l10.94-2.41c-0.84,3.32-1.26,6.21-1.26,8.65
			c0,9.7,5.56,14.55,16.67,14.55c8.9,0,13.34-3.49,13.34-10.48c0-5.19-5.33-9.75-15.98-13.69c-15.39-5.65-23.08-14.68-23.08-27.09
			c0-7.02,2.57-12.69,7.7-16.98c5.13-4.3,11.88-6.44,20.25-6.44C379.82,59.27,388.41,67,388.41,82.46z"/>
		<path d="M430.19,99.87v38.89h-22.68V60.59h22.68v31.44h18.5V60.59h22.68v78.17h-22.68V99.87H430.19z"/>
		<path d="M522.65,59.21c22.76,0,34.13,13.48,34.13,40.43c0,26.96-11.59,40.43-34.76,40.43c-23.18,0-34.76-13.78-34.76-41.35
			C487.25,72.38,499.05,59.21,522.65,59.21z M522.02,65.45c-4.28,0-7.17,2.36-8.68,7.07c-1.51,4.72-2.26,13.75-2.26,27.12
			c0,13.36,0.75,22.4,2.26,27.12c1.51,4.72,4.4,7.07,8.68,7.07c4.28,0,7.17-2.36,8.68-7.07c1.51-4.72,2.26-13.75,2.26-27.12
			c0-13.32-0.75-22.35-2.26-27.09C529.18,67.82,526.29,65.45,522.02,65.45z"/>
		<path d="M604.62,59.21c22.76,0,34.13,13.48,34.13,40.43c0,26.96-11.59,40.43-34.76,40.43c-23.18,0-34.76-13.78-34.76-41.35
			C569.23,72.38,581.03,59.21,604.62,59.21z M603.99,65.45c-4.28,0-7.17,2.36-8.68,7.07c-1.51,4.72-2.26,13.75-2.26,27.12
			c0,13.36,0.75,22.4,2.26,27.12c1.51,4.72,4.4,7.07,8.68,7.07c4.28,0,7.17-2.36,8.68-7.07c1.51-4.72,2.26-13.75,2.26-27.12
			c0-13.32-0.75-22.35-2.26-27.09C611.16,67.82,608.27,65.45,603.99,65.45z"/>
		<path d="M709.51,60.59v7.85h-19.19v70.33h-24.05V68.43h-19.3v-7.85H709.51z"/>
		<path d="M771.9,60.59v7.85h-28.01v23.65h23.54v7.85h-23.54v30.98h32.76v7.85h-55.44V60.59H771.9z"/>
		<path d="M789.62,138.76V60.59h33.62c8.74,0,15.73,1.84,20.96,5.53c5.23,3.69,7.85,8.62,7.85,14.8c0,9.47-5.61,15.64-16.84,18.5
			c5.76,2.14,9.5,4.49,11.2,7.04c1.7,2.56,2.85,7.52,3.46,14.89c0.72,8.78,2.2,14.58,4.41,17.41h-24.63
			c-1.57-3.63-2.35-8.15-2.35-13.57l-0.11-4.64l-0.12-5.84c0-9.01-3.63-13.52-10.88-13.52h-3.89v37.57H789.62z M812.3,94.72h4.58
			c8.59,0,12.89-4.49,12.89-13.46c0-8.97-4.3-13.46-12.89-13.46h-4.58V94.72z"/>
		<path d="M920.68,82.46l-10.54,1.95c0.46-2.1,0.69-3.86,0.69-5.27c0-9.09-5.52-13.63-16.55-13.63c-8.71,0-13.06,3.13-13.06,9.39
			c0,4.7,4.87,8.72,14.6,12.08c18.78,6.45,28.18,16,28.18,28.64c0,7.41-2.63,13.35-7.9,17.84c-5.27,4.49-12.28,6.73-21.02,6.73
			c-19.36,0-29.04-7.5-29.04-22.51c0-1.22,0.09-2.73,0.29-4.52l10.94-2.41c-0.84,3.32-1.26,6.21-1.26,8.65
			c0,9.7,5.56,14.55,16.67,14.55c8.9,0,13.34-3.49,13.34-10.48c0-5.19-5.33-9.75-15.98-13.69c-15.39-5.65-23.08-14.68-23.08-27.09
			c0-7.02,2.57-12.69,7.7-16.98c5.13-4.3,11.88-6.44,20.25-6.44C912.09,59.27,920.68,67,920.68,82.46z"/>
	</g>
	<g>
		<path d="M389.52,186.69v58.06h-16.25v-40.41l-11.31,40.41h-9.4l-11.61-39.73v39.73h-5.66v-58.06h17.1l9.95,35.05l9.91-35.05
			H389.52z"/>
		<path d="M434.64,186.69l16.16,58.06h-16.93l-3.44-12.59h-17.48l-3.7,12.59h-6.59l17.18-58.06H434.64z M414.61,226.33h14.25
			l-6.85-25.73L414.61,226.33z"/>
		<path d="M506.51,186.69v58.06h-12.89L469.38,208v36.75h-5.66v-58.06h10.68l26.46,39.68v-39.68H506.51z"/>
		<path d="M551.29,186.69l16.16,58.06h-16.93l-3.45-12.59H529.6l-3.7,12.59h-6.59l17.18-58.06H551.29z M531.26,226.33h14.25
			l-6.85-25.73L531.26,226.33z"/>
		<path d="M603.43,213.4h23.9v31.35h-5.36l-1.83-4c-4.68,3.32-9.63,4.98-14.84,4.98c-8.59,0-15.26-2.57-20.01-7.72
			c-4.75-5.15-7.12-12.4-7.12-21.76c0-9.1,2.52-16.47,7.55-22.1c5.03-5.63,11.62-8.44,19.76-8.44c10.72,0,17.24,5.47,19.57,16.42
			l-7.91,3.62v-1.4l-0.13-3.15c-0.54-6.83-3.7-10.25-9.48-10.25c-4.25,0-7.16,1.81-8.72,5.44c-1.56,3.63-2.34,10.39-2.34,20.29
			c0,9.24,0.63,15.52,1.89,18.84c1.26,3.32,3.66,4.98,7.21,4.98c4.17,0,6.25-2.32,6.25-6.98v-14.29h-8.38V213.4z"/>
		<path d="M681.94,186.69v5.83h-20.8v17.57h17.48v5.83h-17.48v23.01h24.33v5.83H644.3v-58.06H681.94z"/>
		<path d="M753.39,186.69v58.06h-16.25v-40.41l-11.31,40.41h-9.4l-11.61-39.73v39.73h-5.66v-58.06h17.1l9.95,35.05l9.91-35.05
			H753.39z"/>
		<path d="M809.74,186.69v5.83h-20.8v17.57h17.48v5.83h-17.48v23.01h24.33v5.83h-41.17v-58.06H809.74z"/>
		<path d="M869.7,186.69v58.06h-12.89L832.57,208v36.75h-5.66v-58.06h10.68l26.46,39.68v-39.68H869.7z"/>
		<path d="M928.85,186.69v5.83h-14.25v52.23h-17.86v-52.23h-14.33v-5.83H928.85z"/>
	</g>
</g>
</svg>
