<?xml version="1.0" encoding="UTF-8"?>
<!-- Generator: visioncortex VTracer 0.6.1 -->
<svg version="1.1" xmlns="http://www.w3.org/2000/svg" width="1280" height="395">
<path d="M0 0 C422.4 0 844.8 0 1280 0 C1280 130.35 1280 260.7 1280 395 C857.6 395 435.2 395 0 395 C0 264.65 0 134.3 0 0 Z " fill="#FBFCFE" transform="translate(0,0)"/>
<path d="M0 0 C13.11174889 13.46612048 16.71901417 29.97292694 16.625 48.1875 C16.61936035 49.3317041 16.6137207 50.4759082 16.60791016 51.65478516 C16.39606836 66.4103005 13.99608493 80.62643339 3.5 91.8125 C-6.48565532 100.9612623 -16.92275853 102.72669971 -30.0625 102.6875 C-31.135 102.70361328 -32.2075 102.71972656 -33.3125 102.73632812 C-46.11250662 102.74411402 -56.06379776 99.03676617 -65.76171875 90.5625 C-77.05506124 78.80370522 -79.18827275 60.67299651 -79.04101562 45.03027344 C-78.58231794 29.86048588 -75.04426356 14.75716043 -64.2890625 3.5703125 C-46.92391413 -11.08316105 -19.07295311 -11.53248327 0 0 Z " fill="#000100" transform="translate(816.6875,76.625)"/>
<path d="M0 0 C7.61717334 7.8768497 12.30051766 18.31330252 13.8125 29.1328125 C13.97685547 30.24462891 13.97685547 30.24462891 14.14453125 31.37890625 C16.43123956 49.94697771 15.62397465 70.43797966 4.44140625 86.1328125 C-1.92459927 93.94910705 -10.27745599 98.44301121 -20.1875 100.1328125 C-24.14980969 100.43224207 -28.0902578 100.45771026 -32.0625 100.4453125 C-33.08730469 100.46142578 -34.11210938 100.47753906 -35.16796875 100.49414062 C-47.52705379 100.50199265 -57.7750096 96.84829308 -67.0625 88.5703125 C-70.88848962 84.18167734 -73.73733918 80.44114164 -75.8125 74.9453125 C-76.21726562 73.89988281 -76.62203125 72.85445313 -77.0390625 71.77734375 C-79.83349224 62.90930651 -80.52712116 54.53324882 -80.5 45.2578125 C-80.51611328 44.16339844 -80.53222656 43.06898437 -80.54882812 41.94140625 C-80.5575634 27.17879367 -76.66752679 11.96633226 -66.1875 1.1328125 C-49.12380381 -13.60103286 -17.40997174 -14.86065445 0 0 Z " fill="#000100" transform="translate(709.1875,78.8671875)"/>
<path d="M0 0 C1.09914734 -0.01283524 2.19829468 -0.02567047 3.33074951 -0.03889465 C5.13204315 -0.04997505 5.13204315 -0.04997505 6.96972656 -0.0612793 C8.20265442 -0.06935104 9.43558228 -0.07742279 10.70587158 -0.08573914 C13.32880232 -0.09960991 15.95175135 -0.11031857 18.57470703 -0.11816406 C22.55171744 -0.13126492 26.52809943 -0.1790922 30.50488281 -0.22338867 C33.05565796 -0.23352671 35.60644018 -0.24203932 38.15722656 -0.2487793 C39.33379822 -0.26628738 40.51036987 -0.28379547 41.72259521 -0.30183411 C52.07981635 -0.27518374 62.98796333 1.46800745 71.14160156 8.3605957 C76.75792233 14.29602561 79.67750324 20.38512039 79.95410156 28.5793457 C79.69740782 35.69190138 77.92706881 40.09118481 73.00488281 45.3449707 C69.25957869 48.54451102 63.94609761 52.17700195 58.86035156 52.17700195 C58.86035156 52.83700195 58.86035156 53.49700195 58.86035156 54.17700195 C59.56160156 54.25950195 60.26285156 54.34200195 60.98535156 54.42700195 C65.41954168 55.5837472 68.567287 57.24221741 71.17236328 61.14013672 C74.88615594 68.17299477 76.068836 74.82988298 76.98535156 82.67700195 C77.98683496 90.78811527 79.19085993 98.431281 81.86035156 106.17700195 C77.33968506 106.20169052 72.81905766 106.21985645 68.29833984 106.23193359 C66.75992143 106.23696747 65.22150782 106.24379503 63.68310547 106.25244141 C61.47394631 106.26454834 59.2648503 106.27023964 57.05566406 106.2746582 C56.3660257 106.27981949 55.67638733 106.28498077 54.96585083 106.29029846 C50.08809498 106.29087366 50.08809498 106.29087366 47.86035156 105.17700195 C44.93168046 96.8078433 45.22386149 87.71944911 44.90673828 78.9375 C44.7667938 67.80570286 44.7667938 67.80570286 39.86035156 58.17700195 C37.00854766 56.09934043 34.65271551 55.9262317 31.17285156 55.98950195 C30.38523437 55.99594727 29.59761719 56.00239258 28.78613281 56.0090332 C26.85335792 55.96966526 26.85335792 55.96966526 25.86035156 57.17700195 C25.73781606 58.71082874 25.68257219 60.25010714 25.6550293 61.78857422 C25.63508408 62.76951553 25.61513885 63.75045685 25.59458923 64.76112366 C25.57787674 65.82777756 25.56116425 66.89443146 25.54394531 67.9934082 C25.52316422 69.07959946 25.50238312 70.16579071 25.48097229 71.28489685 C25.41535714 74.76969822 25.35653645 78.25457764 25.29785156 81.73950195 C25.25467771 84.09562996 25.21106381 86.45174994 25.16699219 88.80786133 C25.05966364 94.59749132 24.95791991 100.3871997 24.86035156 106.17700195 C20.60620533 106.20165817 16.35209658 106.21984094 12.09790039 106.23193359 C10.64965084 106.23697296 9.20140639 106.24380448 7.75317383 106.25244141 C5.67560568 106.26452442 3.59810459 106.27023407 1.52050781 106.2746582 C0.26890869 106.27989502 -0.98269043 106.28513184 -2.2722168 106.29052734 C-5.13964844 106.17700195 -5.13964844 106.17700195 -6.13964844 105.17700195 C-6.23711154 103.82592875 -6.26596423 102.46981823 -6.26663208 101.11523438 C-6.2694519 100.24023285 -6.27227173 99.36523132 -6.275177 98.4637146 C-6.27315277 97.49640411 -6.27112854 96.52909363 -6.26904297 95.5324707 C-6.27079529 94.51955963 -6.27254761 93.50664856 -6.27435303 92.46304321 C-6.27877366 89.09684564 -6.27583281 85.73070011 -6.27246094 82.36450195 C-6.27313392 80.03662099 -6.27410389 77.7087401 -6.27536011 75.38085938 C-6.27683737 70.49486626 -6.27468162 65.60889139 -6.27001953 60.72290039 C-6.26432223 54.44427539 -6.26760109 48.16569313 -6.273592 41.8870697 C-6.27719685 37.07799962 -6.27605937 32.26893976 -6.2734642 27.45986938 C-6.27279472 25.14409378 -6.27362408 22.82831726 -6.27594376 20.51254272 C-6.27846904 17.28218104 -6.27463143 14.05188962 -6.26904297 10.8215332 C-6.2710672 9.85422272 -6.27309143 8.88691223 -6.275177 7.89028931 C-6.27235718 7.01528778 -6.26953735 6.14028625 -6.26663208 5.23876953 C-6.26625505 4.47405838 -6.26587803 3.70934723 -6.26548958 2.92146301 C-5.99267522 -0.86040051 -3.16141981 0.03204563 0 0 Z " fill="#000100" transform="translate(1036.1396484375,71.822998046875)"/>
<path d="M0 0 C1.30066406 -0.00128906 2.60132813 -0.00257812 3.94140625 -0.00390625 C4.96258545 -0.00076416 4.96258545 -0.00076416 6.00439453 0.00244141 C8.08503515 0.0077901 10.16545989 0.0024957 12.24609375 -0.00390625 C14.19708984 -0.00197266 14.19708984 -0.00197266 16.1875 0 C17.39083984 0.00112793 18.59417969 0.00225586 19.83398438 0.00341797 C22.59375 0.1328125 22.59375 0.1328125 23.59375 1.1328125 C23.74165456 3.90754783 23.82883638 6.66052566 23.875 9.4375 C23.90261414 10.68987961 23.90261414 10.68987961 23.93078613 11.96755981 C23.98972252 14.64757022 24.04243888 17.3276459 24.09375 20.0078125 C24.16137441 23.52617759 24.23510424 27.04433789 24.3125 30.5625 C24.32607544 31.3750827 24.33965088 32.18766541 24.3536377 33.02487183 C24.42586801 36.29703582 24.5521869 39.00812319 25.59375 42.1328125 C33.51375 42.1328125 41.43375 42.1328125 49.59375 42.1328125 C49.58214844 39.26851562 49.57054687 36.40421875 49.55859375 33.453125 C49.55080038 30.6863618 49.54472521 27.91959982 49.53881836 25.15283203 C49.53378213 23.22639419 49.52695288 21.29996019 49.51831055 19.37353516 C49.50621392 16.60838882 49.50051467 13.84329292 49.49609375 11.078125 C49.49093246 10.2134964 49.48577118 9.3488678 49.48045349 8.45803833 C49.47987829 2.36055591 49.47987829 2.36055591 50.59375 0.1328125 C54.7054756 0.10815504 58.81717278 0.08997291 62.92895508 0.07788086 C64.32870228 0.0728417 65.7284442 0.06601034 67.12817383 0.05737305 C69.13620777 0.0452893 71.14427957 0.04011443 73.15234375 0.03515625 C74.96690063 0.02730103 74.96690063 0.02730103 76.81811523 0.01928711 C79.59375 0.1328125 79.59375 0.1328125 80.59375 1.1328125 C80.68910213 2.49889576 80.7156367 3.86986705 80.71400452 5.23927307 C80.71606651 6.56656433 80.71606651 6.56656433 80.71817017 7.92066956 C80.71277725 9.38801796 80.71277725 9.38801796 80.70727539 10.88500977 C80.70742142 11.9092807 80.70756744 12.93355164 80.7077179 13.98886108 C80.70701828 17.39233479 80.69922363 20.79575454 80.69140625 24.19921875 C80.68954224 26.55191518 80.68811826 28.904612 80.68711853 31.25730896 C80.68329199 37.46337955 80.67346055 43.6694269 80.66241455 49.87548828 C80.65220334 56.20279628 80.64762154 62.53010802 80.64257812 68.85742188 C80.6318384 81.28256232 80.61476036 93.70768548 80.59375 106.1328125 C76.33960377 106.15746872 72.08549502 106.17565149 67.83129883 106.18774414 C66.38304927 106.19278351 64.93480483 106.19961503 63.48657227 106.20825195 C61.40900412 106.22033497 59.33150303 106.22604461 57.25390625 106.23046875 C56.00230713 106.23570557 54.75070801 106.24094238 53.46118164 106.24633789 C50.59375 106.1328125 50.59375 106.1328125 49.59375 105.1328125 C49.47093048 103.50702032 49.41592496 101.87604246 49.38842773 100.24584961 C49.3585099 98.68434425 49.3585099 98.68434425 49.32798767 97.09129333 C49.31127518 95.9590181 49.29456268 94.82674286 49.27734375 93.66015625 C49.25656265 92.50737686 49.23578156 91.35459747 49.21437073 90.16688538 C49.14875036 86.46809093 49.08993245 82.76922291 49.03125 79.0703125 C48.98807665 76.56965371 48.94446276 74.06900249 48.90039062 71.56835938 C48.79305632 65.42325588 48.69131357 59.27807846 48.59375 53.1328125 C44.78126574 53.10394014 40.9688093 53.08605758 37.15625 53.0703125 C36.06763672 53.06193359 34.97902344 53.05355469 33.85742188 53.04492188 C32.82294922 53.04169922 31.78847656 53.03847656 30.72265625 53.03515625 C29.76431885 53.02991943 28.80598145 53.02468262 27.81860352 53.01928711 C25.62089661 52.8822812 25.62089661 52.8822812 24.59375 54.1328125 C24.47093048 55.75860468 24.41592496 57.38958254 24.38842773 59.01977539 C24.36848251 60.06077896 24.34853729 61.10178253 24.32798767 62.17433167 C24.30291893 63.87274452 24.30291893 63.87274452 24.27734375 65.60546875 C24.25656265 66.75824814 24.23578156 67.91102753 24.21437073 69.09873962 C24.14875036 72.79753407 24.08993245 76.49640209 24.03125 80.1953125 C23.98807665 82.69597129 23.94446276 85.19662251 23.90039062 87.69726562 C23.79305632 93.84236912 23.69131357 99.98754654 23.59375 106.1328125 C19.33960377 106.15746872 15.08549502 106.17565149 10.83129883 106.18774414 C9.38304927 106.19278351 7.93480483 106.19961503 6.48657227 106.20825195 C4.40900412 106.22033497 2.33150303 106.22604461 0.25390625 106.23046875 C-0.99769287 106.23570557 -2.24929199 106.24094238 -3.53881836 106.24633789 C-6.40625 106.1328125 -6.40625 106.1328125 -7.40625 105.1328125 C-7.50371311 103.7817393 -7.53256579 102.42562877 -7.53323364 101.07104492 C-7.53605347 100.1960434 -7.53887329 99.32104187 -7.54177856 98.41952515 C-7.53975433 97.45221466 -7.5377301 96.48490417 -7.53564453 95.48828125 C-7.53739685 94.47537018 -7.53914917 93.46245911 -7.54095459 92.41885376 C-7.54537522 89.05265619 -7.54243437 85.68651066 -7.5390625 82.3203125 C-7.53973548 79.99243154 -7.54070545 77.66455064 -7.54196167 75.33666992 C-7.54343893 70.45067681 -7.54128318 65.56470194 -7.53662109 60.67871094 C-7.5309238 54.40008594 -7.53420265 48.12150368 -7.54019356 41.84288025 C-7.54379841 37.03381017 -7.54266093 32.22475031 -7.54006577 27.41567993 C-7.53939629 25.09990433 -7.54022564 22.78412781 -7.54254532 20.46835327 C-7.54507061 17.23799159 -7.54123299 14.00770017 -7.53564453 10.77734375 C-7.53766876 9.81003326 -7.53969299 8.84272278 -7.54177856 7.84609985 C-7.53895874 6.97109833 -7.53613892 6.0960968 -7.53323364 5.19458008 C-7.53285662 4.42986893 -7.53247959 3.66515778 -7.53209114 2.87727356 C-7.23265823 -1.27358718 -3.31745221 0.00310956 0 0 Z " fill="#000100" transform="translate(529.40625,71.8671875)"/>
<path d="M0 0 C1.53527344 -0.01836914 1.53527344 -0.01836914 3.1015625 -0.03710938 C4.07867187 -0.03904297 5.05578125 -0.04097656 6.0625 -0.04296875 C7.41021484 -0.04913208 7.41021484 -0.04913208 8.78515625 -0.05541992 C11 0.1875 11 0.1875 13 2.1875 C13.69607544 3.99557495 13.69607544 3.99557495 14.32861328 6.20654297 C14.56871124 7.03435272 14.8088092 7.86216248 15.05618286 8.71505737 C15.30834564 9.61088531 15.56050842 10.50671326 15.8203125 11.4296875 C16.21559647 12.80956345 16.21559647 12.80956345 16.61886597 14.21731567 C17.17505623 16.16496178 17.72795745 18.11354967 18.27783203 20.06298828 C19.12031569 23.04591456 19.97536321 26.02502665 20.83203125 29.00390625 C21.37054889 30.89561794 21.90833368 32.78753843 22.4453125 34.6796875 C22.82962936 36.01735672 22.82962936 36.01735672 23.22171021 37.38204956 C23.57240067 38.63322067 23.57240067 38.63322067 23.93017578 39.90966797 C24.13732208 40.6408786 24.34446838 41.37208923 24.55789185 42.12545776 C25 44.1875 25 44.1875 25 48.1875 C25.99 48.1875 26.98 48.1875 28 48.1875 C29.23035183 43.89617224 30.45898866 39.60435497 31.6875 35.3125 C31.86951965 34.67789856 32.05153931 34.04329712 32.23907471 33.38946533 C34.0527165 27.06606524 35.86373085 20.74289419 37.57421875 14.390625 C37.79827393 13.56159668 38.0223291 12.73256836 38.25317383 11.87841797 C38.65856817 10.36857474 39.0584201 8.85722913 39.4519043 7.34423828 C40.7800144 2.4074856 40.7800144 2.4074856 43 0.1875 C45.32250977 -0.05541992 45.32250977 -0.05541992 48.19140625 -0.04296875 C49.21814453 -0.04103516 50.24488281 -0.03910156 51.30273438 -0.03710938 C52.37845703 -0.02486328 53.45417969 -0.01261719 54.5625 0 C55.64208984 0.00064453 56.72167969 0.00128906 57.83398438 0.00195312 C65.85985402 0.04735402 65.85985402 0.04735402 67 1.1875 C67.09511266 3.83488089 67.12555635 6.45609001 67.11352539 9.10375977 C67.11367142 9.93295929 67.11381744 10.76215881 67.1139679 11.6164856 C67.11326851 14.37065198 67.10547493 17.12475161 67.09765625 19.87890625 C67.09579216 21.78319766 67.09436822 23.68748955 67.09336853 25.59178162 C67.08954263 30.61417963 67.07971173 35.63654892 67.06866455 40.65893555 C67.05845198 45.7797812 67.05387124 50.90063148 67.04882812 56.02148438 C67.03808953 66.07683557 67.02101224 76.1321654 67 86.1875 C63.37506666 86.24537784 59.75025143 86.2810542 56.125 86.3125 C55.09246094 86.32925781 54.05992187 86.34601563 52.99609375 86.36328125 C52.00996094 86.36972656 51.02382813 86.37617188 50.0078125 86.3828125 C48.64100342 86.39852295 48.64100342 86.39852295 47.24658203 86.41455078 C45 86.1875 45 86.1875 43 84.1875 C42.75949097 82.01083374 42.75949097 82.01083374 42.77294922 79.27880859 C42.77310028 78.25790131 42.77325134 77.23699402 42.77340698 76.18515015 C42.78372955 75.07990997 42.79405212 73.9746698 42.8046875 72.8359375 C42.8075174 71.7067691 42.81034729 70.57760071 42.81326294 69.41421509 C42.82448538 65.79687029 42.84959378 62.17977034 42.875 58.5625 C42.88502713 56.1145869 42.89415344 53.66666993 42.90234375 51.21875 C42.92443143 45.20824936 42.95792926 39.19789217 43 33.1875 C42.34 33.1875 41.68 33.1875 41 33.1875 C40.83190575 34.09404579 40.83190575 34.09404579 40.66041565 35.01890564 C39.47142845 41.21765738 37.96239188 47.25361036 36.21484375 53.31640625 C35.82311729 54.68997536 35.82311729 54.68997536 35.42347717 56.09129333 C34.87661013 58.00517973 34.32779723 59.91851112 33.77709961 61.83129883 C32.93115765 64.77204793 32.09311803 67.71497144 31.25585938 70.65820312 C30.72181889 72.52357061 30.18733016 74.38880984 29.65234375 76.25390625 C29.40129379 77.13607315 29.15024384 78.01824005 28.8915863 78.92713928 C27.11521213 85.07228787 27.11521213 85.07228787 26 86.1875 C24.04697598 86.36531263 22.08559305 86.45533421 20.125 86.5 C19.05507813 86.53738281 17.98515625 86.57476562 16.8828125 86.61328125 C14 86.1875 14 86.1875 12.4271698 84.47613525 C10.90926096 82.04198924 10.09441368 79.89166939 9.2824707 77.14355469 C8.97829224 76.12890137 8.67411377 75.11424805 8.36071777 74.06884766 C8.05218872 73.00972168 7.74365967 71.9505957 7.42578125 70.859375 C7.13392944 69.88049316 6.84207764 68.90161133 6.54138184 67.89306641 C5.45603069 64.24389254 4.38512378 60.59043515 3.3125 56.9375 C0.899375 48.77 -1.51375 40.6025 -4 32.1875 C-4.33 50.0075 -4.66 67.8275 -5 86.1875 C-7.31 86.1875 -9.62 86.1875 -12 86.1875 C-13.55879555 83.06990889 -13.12952133 79.76235514 -13.11352539 76.34130859 C-13.11367142 75.53147018 -13.11381744 74.72163177 -13.1139679 73.88725281 C-13.11326977 71.20345404 -13.10548204 68.51972419 -13.09765625 65.8359375 C-13.09579171 63.97791583 -13.09436798 62.11989367 -13.09336853 60.26187134 C-13.08954615 55.36607512 -13.07971823 50.47030845 -13.06866455 45.57452393 C-13.05844444 40.58093669 -13.05386962 35.58734468 -13.04882812 30.59375 C-13.03809573 20.79165366 -13.02102264 10.98957929 -13 1.1875 C-9.11308052 -0.75595974 -4.27485419 0.00269197 0 0 Z " fill="#000100" transform="translate(440,239.8125)"/>
<path d="M0 0 C0.98613281 0.00322266 1.97226562 0.00644531 2.98828125 0.00976562 C4.02082031 0.01814453 5.05335938 0.02652344 6.1171875 0.03515625 C7.67759766 0.04192383 7.67759766 0.04192383 9.26953125 0.04882812 C11.84380712 0.06063673 14.41796896 0.0771055 16.9921875 0.09765625 C19.65426741 4.97024373 21.21928561 9.79510149 22.69140625 15.109375 C22.9313179 15.95941605 23.17122955 16.80945709 23.41841125 17.68525696 C23.92125236 19.47205427 24.42113665 21.25968607 24.91821289 23.0480957 C25.68070601 25.78881722 26.45388753 28.52635835 27.22851562 31.26367188 C27.71677934 33.00372861 28.20443106 34.74395722 28.69140625 36.484375 C28.92260666 37.30314621 29.15380707 38.12191742 29.39201355 38.96549988 C30.25638932 42.09061118 30.9921875 44.83893616 30.9921875 48.09765625 C31.9821875 47.76765625 32.9721875 47.43765625 33.9921875 47.09765625 C34.91858564 45.22778051 34.91858564 45.22778051 35.49438477 42.88500977 C35.87476646 41.54340538 35.87476646 41.54340538 36.26283264 40.17469788 C36.65673439 38.71537086 36.65673439 38.71537086 37.05859375 37.2265625 C37.33815414 36.23389877 37.61771454 35.24123505 37.90574646 34.2184906 C38.80059893 31.0355581 39.67869043 27.84832515 40.5546875 24.66015625 C41.43625824 21.4761866 42.32140697 18.29333595 43.21434021 15.11253357 C43.77017399 13.13019137 44.31907906 11.14589124 44.86048889 9.15956116 C45.11092453 8.26200607 45.36136017 7.36445099 45.61938477 6.43969727 C45.83683853 5.64773453 46.0542923 4.85577179 46.27833557 4.03981018 C46.9921875 2.09765625 46.9921875 2.09765625 48.9921875 0.09765625 C51.31469727 -0.14526367 51.31469727 -0.14526367 54.18359375 -0.1328125 C55.21033203 -0.13087891 56.23707031 -0.12894531 57.29492188 -0.12695312 C58.37064453 -0.11470703 59.44636719 -0.10246094 60.5546875 -0.08984375 C61.63427734 -0.08919922 62.71386719 -0.08855469 63.82617188 -0.08789062 C71.85204152 -0.04248973 71.85204152 -0.04248973 72.9921875 1.09765625 C73.08730016 3.74503714 73.11774385 6.36624626 73.10571289 9.01391602 C73.10585892 9.84311554 73.10600494 10.67231506 73.1061554 11.52664185 C73.10545601 14.28080823 73.09766243 17.03490786 73.08984375 19.7890625 C73.08797966 21.69335391 73.08655572 23.5976458 73.08555603 25.50193787 C73.08173013 30.52433588 73.07189923 35.54670517 73.06085205 40.5690918 C73.05063948 45.68993745 73.04605874 50.81078773 73.04101562 55.93164062 C73.03027703 65.98699182 73.01319974 76.04232165 72.9921875 86.09765625 C69.17970324 86.12652861 65.3672468 86.14441117 61.5546875 86.16015625 C60.46607422 86.16853516 59.37746094 86.17691406 58.25585938 86.18554688 C57.22138672 86.18876953 56.18691406 86.19199219 55.12109375 86.1953125 C54.16275635 86.20054932 53.20441895 86.20578613 52.21704102 86.21118164 C49.9921875 86.09765625 49.9921875 86.09765625 48.9921875 85.09765625 C48.869652 83.56382946 48.81440812 82.02455106 48.78686523 80.48608398 C48.7569474 79.01467201 48.7569474 79.01467201 48.72642517 77.51353455 C48.70971268 76.44688065 48.69300018 75.38022675 48.67578125 74.28125 C48.65500015 73.19505875 48.63421906 72.10886749 48.61280823 70.98976135 C48.54719308 67.50495998 48.48837239 64.02008057 48.4296875 60.53515625 C48.38651365 58.17902824 48.34289974 55.82290826 48.29882812 53.46679688 C48.19149958 47.67716688 48.08975585 41.8874585 47.9921875 36.09765625 C47.3321875 36.09765625 46.6721875 36.09765625 45.9921875 36.09765625 C45.80785156 36.95359375 45.62351562 37.80953125 45.43359375 38.69140625 C43.08095221 49.25924059 40.22794622 59.67654393 37.3046875 70.09765625 C37.100784 70.82863525 36.89688049 71.55961426 36.6867981 72.31274414 C36.10111125 74.40884326 35.51048656 76.50347909 34.91796875 78.59765625 C34.57161377 79.82484375 34.22525879 81.05203125 33.8684082 82.31640625 C32.9921875 85.09765625 32.9921875 85.09765625 31.9921875 86.09765625 C30.03795884 86.24932773 28.07709021 86.31945621 26.1171875 86.34765625 C25.04726563 86.3734375 23.97734375 86.39921875 22.875 86.42578125 C19.9921875 86.09765625 19.9921875 86.09765625 18.42431641 84.91186523 C16.60867474 82.61182548 15.99990953 80.55992781 15.1953125 77.7421875 C14.87949219 76.65526611 14.56367187 75.56834473 14.23828125 74.44848633 C13.90957031 73.2808374 13.58085938 72.11318848 13.2421875 70.91015625 C12.89800781 69.71737061 12.55382812 68.52458496 12.19921875 67.2956543 C11.48247556 64.81018978 10.76964519 62.32359388 10.06054688 59.8359375 C8.70476208 55.09193001 7.31947967 50.35682309 5.93261719 45.62182617 C4.61309826 41.11552516 3.3022862 36.60670335 1.9921875 32.09765625 C0.32595172 33.76389203 0.82478059 35.78524537 0.78686523 38.07641602 C0.76692001 39.13744034 0.74697479 40.19846466 0.72642517 41.29164124 C0.70135643 43.02286476 0.70135643 43.02286476 0.67578125 44.7890625 C0.65500015 45.96403793 0.63421906 47.13901337 0.61280823 48.34959412 C0.54718626 52.11971949 0.4883692 55.88991707 0.4296875 59.66015625 C0.3865143 62.20899198 0.34290042 64.75782028 0.29882812 67.30664062 C0.19149205 73.57023517 0.0897496 79.83390226 -0.0078125 86.09765625 C-1.9878125 86.09765625 -3.9678125 86.09765625 -6.0078125 86.09765625 C-7.56660805 82.98006514 -7.13733383 79.67251139 -7.12133789 76.25146484 C-7.12148392 75.44162643 -7.12162994 74.63178802 -7.1217804 73.79740906 C-7.12108227 71.11361029 -7.11329454 68.42988044 -7.10546875 65.74609375 C-7.10360421 63.88807208 -7.10218048 62.03004992 -7.10118103 60.17202759 C-7.09735865 55.27623137 -7.08753073 50.3804647 -7.07647705 45.48468018 C-7.06625694 40.49109294 -7.06168212 35.49750093 -7.05664062 30.50390625 C-7.04590823 20.70180991 -7.02883514 10.89973554 -7.0078125 1.09765625 C-4.50284246 -0.15482877 -2.79927976 -0.01608781 0 0 Z " fill="#000100" transform="translate(922.0078125,239.90234375)"/>
<path d="M0 0 C8.08870798 7.59348096 10.430165 15.13383604 11 26 C6.49346274 27.44209192 2.79124078 28.34223148 -2 28 C-3.72156201 26.27843799 -3.12582502 23.78408612 -3.1875 21.4375 C-3.61583223 16.06736463 -4.58070653 12.63032698 -8.14453125 8.55859375 C-13.63837298 3.9437667 -20.4102052 3.5027024 -27.34765625 3.70703125 C-32.6726983 4.29521704 -37.4402447 5.80900902 -41 10 C-42.21260877 13.63782632 -42.39544552 16.17735999 -42 20 C-38.69189118 23.90187194 -35.32332167 26.1533627 -30.75 28.375 C-30.15082764 28.66898682 -29.55165527 28.96297363 -28.93432617 29.26586914 C-24.85915759 31.22702119 -20.71346083 32.93264318 -16.50244141 34.57788086 C-2.68892404 40.00010992 6.84258191 46.75814615 13.65625 60.2890625 C15.17738887 64.48988206 15.53951047 67.88832712 15.5 72.3125 C15.49427979 73.05870605 15.48855957 73.80491211 15.48266602 74.57373047 C15.21569977 82.85957171 12.33887004 88.63766856 6.875 94.8125 C-1.84564588 102.91982573 -12.25121057 104.19505749 -23.5625 104.25 C-24.59697266 104.270625 -25.63144531 104.29125 -26.69726562 104.3125 C-39.14331459 104.37484715 -50.141124 101.33127015 -59.4375 92.75 C-63.15571409 86.20594319 -65.18629972 78.53377353 -64 71 C-62 68 -62 68 -59.46875 67.26953125 C-58.4890625 67.11871094 -57.509375 66.96789062 -56.5 66.8125 C-55.5203125 66.65394531 -54.540625 66.49539062 -53.53125 66.33203125 C-51 66 -51 66 -49 66 C-49.03480469 67.24136719 -49.06960938 68.48273438 -49.10546875 69.76171875 C-49.13361584 71.40363226 -49.16091501 73.04556046 -49.1875 74.6875 C-49.21263672 75.50412109 -49.23777344 76.32074219 -49.26367188 77.16210938 C-49.3219063 81.95674352 -49.14913912 85.12858126 -46 89 C-40.70904414 94.37051911 -33.91805785 94.51902359 -26.8125 94.625 C-25.9450415 94.64796143 -25.07758301 94.67092285 -24.18383789 94.69458008 C-19.87991629 94.64285522 -16.88697891 94.37610294 -13.44921875 91.6484375 C-10.64578253 88.61697058 -10.12794231 86.91387362 -9.5625 82.875 C-10.18339662 77.37562995 -12.14311796 73.95077617 -16 70 C-21.61541709 66.33092954 -27.86442259 64.05301485 -34.0625 61.5625 C-44.98728361 57.06405969 -56.09075148 50.46500012 -60.9375 39.125 C-63.92603973 29.15664708 -63.28996377 20.52914366 -59 11 C-53.72235338 2.72369052 -45.33519491 -2.37336721 -36 -5 C-24.02943266 -7.35486571 -10.37113073 -7.08977297 0 0 Z " fill="#000100" transform="translate(1196,75)"/>
<path d="M0 0 C5.61957908 6.4984706 8.74396111 14.04991479 9.1875 22.625 C9.0946875 23.800625 9.0946875 23.800625 9 25 C-0.05607477 27.6635514 -0.05607477 27.6635514 -3 28 C-5.64440557 25.35559443 -5.19414183 24.05232944 -5.25 20.375 C-5.63656355 15.00820945 -6.58452775 11.62596117 -10.14453125 7.55859375 C-15.63343885 2.94791137 -22.41769956 2.48567898 -29.3515625 2.71875 C-34.94126957 3.31234721 -38.60564151 4.57163276 -42.5625 8.625 C-44.16353806 12.38395891 -44.7487196 14.77025216 -44 18.78125 C-40.02837212 27.59329937 -25.00677064 30.91505875 -16.79125977 34.23364258 C-6.10041057 38.62966902 2.98603368 43.7209359 9 54 C9.339104 54.56082275 9.67820801 55.12164551 10.02758789 55.69946289 C12.98914401 60.99073257 13.67292095 65.42046323 13.5625 71.4375 C13.55226807 72.27571289 13.54203613 73.11392578 13.53149414 73.97753906 C13.31126994 80.37339883 12.28657608 85.06557867 8 90 C7.45730469 90.64066406 6.91460937 91.28132813 6.35546875 91.94140625 C0.0310382 98.77978601 -7.365039 102.49539266 -16.71899414 103.20678711 C-19.75276019 103.30425852 -22.77724506 103.32201491 -25.8125 103.3125 C-26.82892578 103.32861328 -27.84535156 103.34472656 -28.89257812 103.36132812 C-41.29270748 103.36923133 -52.09354587 100.19809986 -61.4375 91.8125 C-65.31171837 84.83890693 -67.20109823 76.5550793 -65.5 68.6875 C-63.02330599 65.90121924 -59.63068979 65.33363095 -56 65 C-53.23828125 65.45703125 -53.23828125 65.45703125 -51 66 C-51.03480469 67.08539063 -51.06960938 68.17078125 -51.10546875 69.2890625 C-51.13362388 70.73435942 -51.16092219 72.17967321 -51.1875 73.625 C-51.21263672 74.33785156 -51.23777344 75.05070312 -51.26367188 75.78515625 C-51.34028011 81.35202162 -50.36372787 85.4526241 -46.44140625 89.6796875 C-40.82288031 93.2540512 -35.30315453 93.52291432 -28.8125 93.625 C-27.9450415 93.64804199 -27.07758301 93.67108398 -26.18383789 93.69482422 C-21.84023216 93.64220482 -18.89126734 93.37445853 -15.44921875 90.5859375 C-11.91366891 86.85302842 -11.50865991 84.45518279 -11.61328125 79.44140625 C-12.33677707 74.87388211 -14.57757816 72.01453544 -18 69 C-21.85331463 66.63335427 -25.84995652 64.78473372 -30 63 C-57.26286206 51.06136106 -57.26286206 51.06136106 -62.28515625 39.2578125 C-65.47078641 29.19609537 -65.60975122 20.50456878 -61.3125 10.8125 C-56.21336498 1.58194901 -48.51258068 -2.49580644 -38.75 -5.75 C-26.3157907 -9.04140834 -10.46691862 -7.95485815 0 0 Z " fill="#000100" transform="translate(490,76)"/>
<path d="M0 0 C0.65202896 -0.00175232 1.30405792 -0.00350464 1.97584534 -0.00531006 C4.14082465 -0.00972751 6.30572291 -0.00679098 8.47070312 -0.00341797 C9.96903499 -0.00409104 11.46736675 -0.00506109 12.96569824 -0.00631714 C16.10979245 -0.00779397 19.2538583 -0.00564005 22.39794922 -0.00097656 C26.43681851 0.00472073 30.47562137 0.00144164 34.51448822 -0.00454903 C37.60960393 -0.00815505 40.70470377 -0.00701586 43.79981995 -0.00442123 C45.28943388 -0.00375208 46.77904923 -0.00457999 48.2686615 -0.00690079 C50.34711548 -0.009428 52.42546044 -0.0055858 54.50390625 0 C56.28142273 0.00119339 56.28142273 0.00119339 58.09484863 0.00241089 C60.75195312 0.12939453 60.75195312 0.12939453 61.75195312 1.12939453 C61.82375276 2.64867491 61.8358732 4.17106935 61.81445312 5.69189453 C61.80542969 6.51818359 61.79640625 7.34447266 61.78710938 8.19580078 C61.77550781 8.83388672 61.76390625 9.47197266 61.75195312 10.12939453 C60.66664307 10.15445068 59.58133301 10.17950684 58.46313477 10.20532227 C54.45063713 10.29923208 50.4383193 10.3994922 46.42602539 10.50170898 C44.68681025 10.54512026 42.94755077 10.58679065 41.20825195 10.62670898 C38.71356824 10.68426221 36.21910903 10.74799873 33.72460938 10.81298828 C32.94231461 10.82970078 32.16001984 10.84641327 31.35401917 10.8636322 C27.75323532 10.63588184 27.75323532 10.63588184 24.75195312 12.12939453 C24.65201781 14.18994763 24.62114407 16.25392043 24.61914062 18.31689453 C24.61785156 19.57244141 24.6165625 20.82798828 24.61523438 22.12158203 C24.6173291 22.77868164 24.61942383 23.43578125 24.62158203 24.11279297 C24.62693079 26.12100788 24.62163621 28.12899912 24.61523438 30.13720703 C24.61716797 32.02052734 24.61716797 32.02052734 24.61914062 33.94189453 C24.62026855 35.10333984 24.62139648 36.26478516 24.62255859 37.46142578 C24.44857839 40.05002737 24.44857839 40.05002737 25.75195312 41.12939453 C27.88440795 41.27578386 30.0214065 41.35685265 32.15820312 41.41064453 C34.10919922 41.46671875 34.10919922 41.46671875 36.09960938 41.52392578 C37.48370983 41.55963393 38.86782481 41.59478324 40.25195312 41.62939453 C42.95009664 41.69686388 45.64780182 41.77060326 48.34570312 41.84814453 C49.54904297 41.8784375 50.75238281 41.90873047 51.9921875 41.93994141 C54.75195312 42.12939453 54.75195312 42.12939453 55.75195312 43.12939453 C55.82375276 44.64867491 55.8358732 46.17106935 55.81445312 47.69189453 C55.80542969 48.51818359 55.79640625 49.34447266 55.78710938 50.19580078 C55.77550781 50.83388672 55.76390625 51.47197266 55.75195312 52.12939453 C54.84840088 52.15445068 53.94484863 52.17950684 53.01391602 52.20532227 C49.67231032 52.3002677 46.3308906 52.39951074 42.98950195 52.50170898 C41.54131073 52.54511083 40.09306658 52.58678197 38.64477539 52.62670898 C36.56705753 52.68428515 34.48960739 52.74801481 32.41210938 52.81298828 C30.53471069 52.86797485 30.53471069 52.86797485 28.61938477 52.92407227 C25.85564809 52.80743359 25.85564809 52.80743359 24.75195312 54.12939453 C24.65084959 57.07475023 24.61226033 59.99617013 24.61914062 62.94189453 C24.6181839 63.82594971 24.61722717 64.71000488 24.61624146 65.62084961 C24.61555961 67.49381583 24.61741419 69.36678439 24.62158203 71.23974609 C24.62693023 74.11707841 24.62163719 76.99425461 24.61523438 79.87158203 C24.61589516 81.68668654 24.61717632 83.50179096 24.61914062 85.31689453 C24.61711639 86.18354736 24.61509216 87.0502002 24.61300659 87.94311523 C24.23934899 91.84942672 24.23934899 91.84942672 25.75195312 95.12939453 C28.84113579 95.27744331 31.91074456 95.36454996 35.00195312 95.41064453 C35.93040039 95.42905396 36.85884766 95.44746338 37.81542969 95.46643066 C40.79420437 95.52538036 43.77303706 95.57811654 46.75195312 95.62939453 C50.66874804 95.69681684 54.58534933 95.77048539 58.50195312 95.84814453 C59.41235352 95.86171997 60.32275391 95.87529541 61.26074219 95.88928223 C67.63915131 96.01659272 67.63915131 96.01659272 68.75195312 97.12939453 C68.82375276 98.64867491 68.8358732 100.17106935 68.81445312 101.69189453 C68.80542969 102.51818359 68.79640625 103.34447266 68.78710938 104.19580078 C68.77550781 104.83388672 68.76390625 105.47197266 68.75195312 106.12939453 C58.99044324 106.15251899 49.22893983 106.17031014 39.46740818 106.1812067 C34.93521218 106.18643531 30.40303486 106.19353254 25.87084961 106.20483398 C21.50072482 106.21566367 17.13061805 106.22167154 12.76048088 106.22427177 C11.0894435 106.22612588 9.41840715 106.22974621 7.7473774 106.23512459 C5.41497761 106.24233612 3.0826532 106.24338543 0.75024414 106.24291992 C0.05253403 106.2465152 -0.64517609 106.25011047 -1.36402893 106.2538147 C-6.13399471 106.24344669 -6.13399471 106.24344669 -7.24804688 105.12939453 C-7.34550998 103.77832133 -7.37436267 102.4222108 -7.37503052 101.06762695 C-7.37785034 100.19262543 -7.38067017 99.3176239 -7.38357544 98.41610718 C-7.38155121 97.44879669 -7.37952698 96.48148621 -7.37744141 95.48486328 C-7.37919373 94.47195221 -7.38094604 93.45904114 -7.38275146 92.41543579 C-7.38717209 89.04923822 -7.38423125 85.68309269 -7.38085938 82.31689453 C-7.38153235 79.98901357 -7.38250233 77.66113267 -7.38375854 75.33325195 C-7.3852358 70.44725884 -7.38308006 65.56128397 -7.37841797 60.67529297 C-7.37272067 54.39666797 -7.37599953 48.11808571 -7.38199043 41.83946228 C-7.38559529 37.0303922 -7.38445781 32.22133234 -7.38186264 27.41226196 C-7.38119316 25.09648636 -7.38202252 22.78070984 -7.38434219 20.4649353 C-7.38686748 17.23457362 -7.38302987 14.0042822 -7.37744141 10.77392578 C-7.37946564 9.8066153 -7.38148987 8.83930481 -7.38357544 7.84268188 C-7.38075562 6.96768036 -7.37793579 6.09267883 -7.37503052 5.19116211 C-7.37465349 4.42645096 -7.37427647 3.66173981 -7.37388802 2.87385559 C-7.07754135 -1.23422236 -3.30311511 0.00221765 0 0 Z " fill="#000100" transform="translate(946.248046875,71.87060546875)"/>
<path d="M0 0 C10.93496471 -0.02312297 21.86992366 -0.04091485 32.8049078 -0.05181217 C37.88191018 -0.0570411 42.95889589 -0.06413892 48.03588867 -0.07543945 C52.93120552 -0.08626799 57.82650629 -0.09227676 62.72183418 -0.09487724 C64.59382951 -0.09673155 66.46582391 -0.10035228 68.33781242 -0.10573006 C70.95040699 -0.11294004 73.56293427 -0.11399096 76.17553711 -0.11352539 C76.95740387 -0.11712067 77.73927063 -0.12071594 78.54483032 -0.12442017 C83.88594784 -0.11405216 83.88594784 -0.11405216 85 1 C85 3.97 85 6.94 85 10 C72.625 10.495 72.625 10.495 60 11 C59.67 42.35 59.34 73.7 59 106 C48.44 106 37.88 106 27 106 C24.90138946 103.90138946 25.82458091 99.26450308 25.81054688 96.36523438 C25.80225357 95.45961258 25.79396027 94.55399078 25.78541565 93.6209259 C25.76797427 91.64784015 25.75281877 89.67473321 25.73963928 87.70161438 C25.71868679 84.58434512 25.69165879 81.46718254 25.66296387 78.34997559 C25.59297496 70.60725152 25.53366915 62.8644518 25.47393799 55.12164307 C25.42310062 48.58400511 25.36830111 42.04642419 25.30812073 35.50886536 C25.28144053 32.42824981 25.26068964 29.34762928 25.2401123 26.26696777 C25.22351673 24.38956446 25.20664555 22.51216356 25.18945312 20.63476562 C25.1831765 19.33808708 25.1831765 19.33808708 25.17677307 18.01521301 C25.50667912 14.19821751 25.50667912 14.19821751 24 11 C22.23266824 10.85447268 20.45999006 10.77277531 18.6875 10.71875 C17.61242187 10.68136719 16.53734375 10.64398438 15.4296875 10.60546875 C14.29789063 10.57066406 13.16609375 10.53585938 12 10.5 C9.77069493 10.43144506 7.54151176 10.3587576 5.3125 10.28125 C4.31863281 10.25095703 3.32476563 10.22066406 2.30078125 10.18945312 C0 10 0 10 -1 9 C-1.23728814 2.47457627 -1.23728814 2.47457627 0 0 Z " fill="#000100" transform="translate(841,72)"/>
<path d="M0 0 C6.87531816 5.97853753 10.5734918 12.53405461 11.875 21.5 C8.575 22.82 5.275 24.14 1.875 25.5 C-0.22201249 22.35448126 -0.5084515 20.78653472 -1 17.125 C-1.75978718 12.56627694 -2.65457335 9.75352498 -6.125 6.5 C-10.41252832 4.35623584 -15.84893864 5.28331034 -20.4375 6.0625 C-24.17332273 8.06073076 -25.65293072 10.66693071 -27.125 14.5 C-31.7543429 30.55023677 -33.15515486 54.03589947 -26.80078125 69.78125 C-25.09296879 72.55196672 -23.97181734 73.95906217 -21.125 75.5 C-18.6455868 76.00751575 -18.6455868 76.00751575 -16.0625 75.9375 C-15.20527344 75.95683594 -14.34804688 75.97617187 -13.46484375 75.99609375 C-11.0181525 75.706475 -11.0181525 75.706475 -9.49926758 73.80566406 C-7.83534767 71.01403861 -7.76461244 69.34537837 -7.796875 66.11328125 C-7.80460938 64.5828418 -7.80460938 64.5828418 -7.8125 63.02148438 C-7.833125 61.96251953 -7.85375 60.90355469 -7.875 59.8125 C-7.88273438 58.20665039 -7.88273438 58.20665039 -7.890625 56.56835938 C-7.48426967 51.6836843 -7.48426967 51.6836843 -9.125 47.5 C-10.59896739 47.29231771 -12.0799126 47.13283983 -13.5625 47 C-17.90582192 46.60958904 -17.90582192 46.60958904 -20.125 45.5 C-20.25 39.75 -20.25 39.75 -19.125 37.5 C-14.44360746 37.47534712 -9.76225241 37.45716261 -5.08081055 37.44506836 C-3.48705386 37.44002843 -1.89330181 37.4331965 -0.29956055 37.42456055 C1.98650253 37.41248001 4.27250467 37.40676845 6.55859375 37.40234375 C7.27526718 37.39718246 7.99194061 37.39202118 8.73033142 37.38670349 C10.44563672 37.38650737 12.16081266 37.43807993 13.875 37.5 C14.875 38.5 14.875 38.5 14.99525452 40.32862854 C14.99303391 41.12582809 14.99081329 41.92302765 14.98852539 42.74438477 C14.98841209 44.09567223 14.98841209 44.09567223 14.98829651 45.47425842 C14.98313522 46.45341721 14.97797394 47.43257599 14.97265625 48.44140625 C14.9712413 49.43881332 14.96982635 50.4362204 14.96836853 51.46385193 C14.96275114 54.66343124 14.95019571 57.86294169 14.9375 61.0625 C14.93248724 63.22591045 14.92792395 65.38932199 14.92382812 67.55273438 C14.91277607 72.86851325 14.89602104 78.18425171 14.875 83.5 C9.171875 83.75 9.171875 83.75 6.5 81.5 C5.96375 80.84 5.4275 80.18 4.875 79.5 C3.6684375 79.9021875 3.6684375 79.9021875 2.4375 80.3125 C1.261875 80.704375 0.08625 81.09625 -1.125 81.5 C-1.75535156 81.76425781 -2.38570312 82.02851563 -3.03515625 82.30078125 C-13.29971253 86.3490455 -24.97083874 85.5616645 -35.125 81.5 C-45.58456874 76.49033718 -51.95929631 69.45750249 -55.8125 58.5546875 C-59.68696798 44.40211695 -57.69712019 28.0623475 -50.80859375 15.29296875 C-44.82921183 5.37357647 -36.73583541 -0.02568249 -25.4375 -2.875 C-16.69403478 -4.41889116 -8.06350616 -3.87048296 0 0 Z " fill="#000100" transform="translate(809.125,242.5)"/>
<path d="M0 0 C0.88042969 -0.01224609 1.76085937 -0.02449219 2.66796875 -0.03710938 C3.50972656 -0.03904297 4.35148438 -0.04097656 5.21875 -0.04296875 C6.37793945 -0.04913208 6.37793945 -0.04913208 7.56054688 -0.05541992 C9.5 0.1875 9.5 0.1875 11.5 2.1875 C12.13438832 4.35524398 12.68028845 6.54902318 13.1875 8.75 C14.83107593 15.62791418 16.64373481 22.4438562 18.5625 29.25 C18.98934082 30.76932129 18.98934082 30.76932129 19.42480469 32.31933594 C21.14874662 38.43942062 22.88960923 44.5545222 24.63813782 50.6676178 C25.65435535 54.22365515 26.66655517 57.78083086 27.67843628 61.33810425 C28.1830411 63.10765982 28.68964243 64.87664733 29.19827271 66.64505005 C29.91685168 69.14355589 30.62896469 71.64382551 31.33984375 74.14453125 C31.66745193 75.27420319 31.66745193 75.27420319 32.00167847 76.42669678 C32.96893156 79.85178385 33.5 82.59579464 33.5 86.1875 C29.72956968 86.33246508 25.95985258 86.42145607 22.1875 86.5 C21.11564453 86.54189453 20.04378906 86.58378906 18.93945312 86.62695312 C17.91142578 86.64306641 16.88339844 86.65917969 15.82421875 86.67578125 C14.87635498 86.70196533 13.92849121 86.72814941 12.9519043 86.75512695 C10.5 86.1875 10.5 86.1875 8.72436523 83.83129883 C7.45569668 81.09183487 6.60871693 78.48930491 5.875 75.5625 C5.15249917 72.72687844 4.42580465 69.96491395 3.5 67.1875 C-5.08 67.5175 -13.66 67.8475 -22.5 68.1875 C-22.83 70.4975 -23.16 72.8075 -23.5 75.1875 C-23.95698834 76.99061705 -24.45296321 78.78463043 -25 80.5625 C-25.38671875 81.84253906 -25.38671875 81.84253906 -25.78125 83.1484375 C-26.5 85.1875 -26.5 85.1875 -27.5 86.1875 C-30.17058851 86.32865161 -32.82432238 86.22997107 -35.5 86.1875 C-34.98667824 77.26979263 -32.28149454 69.04586319 -29.6875 60.5625 C-29.19946479 58.94904027 -28.71192511 57.33543058 -28.22485352 55.72167969 C-27.19582774 52.31847435 -26.16127591 48.91701003 -25.12304688 45.51660156 C-23.73757082 40.97573841 -22.36835531 36.43013767 -21.00334167 31.88308716 C-19.9179596 28.27253007 -18.82529792 24.6642063 -17.73062134 21.05645752 C-17.20223436 19.31167652 -16.67616824 17.56619097 -16.1524353 15.82000732 C-15.42028094 13.38287227 -14.67829026 10.9489521 -13.93359375 8.515625 C-13.71632629 7.78511932 -13.49905884 7.05461365 -13.27520752 6.30197144 C-12.7419126 4.57797258 -12.12844702 2.87913527 -11.5 1.1875 C-7.9639604 -0.5805198 -3.89428745 0.00285087 0 0 Z " fill="#000100" transform="translate(710.5,239.8125)"/>
<path d="M0 0 C0.76755615 0.00821777 1.5351123 0.01643555 2.32592773 0.02490234 C3.58373047 0.03070313 3.58373047 0.03070313 4.86694336 0.03662109 C6.17501953 0.07335937 6.17501953 0.07335937 7.50952148 0.11083984 C8.38543945 0.11212891 9.26135742 0.11341797 10.16381836 0.11474609 C16.66602763 0.20484599 16.66602763 0.20484599 18.94702148 2.48583984 C19.68275452 4.5327301 19.68275452 4.5327301 20.37695312 7.09741211 C20.64277695 8.06436508 20.90860077 9.03131805 21.18247986 10.02757263 C21.60926781 11.6175985 21.60926781 11.6175985 22.04467773 13.23974609 C22.67195497 15.52910558 23.29974353 17.81832502 23.92797852 20.10742188 C24.25727356 21.31456848 24.5865686 22.52171509 24.92584229 23.76544189 C26.6266308 29.96181771 28.38124725 36.14288437 30.13061523 42.32568359 C30.83730599 44.83275754 31.54368517 47.33991933 32.24975586 49.84716797 C33.33035214 53.68357065 34.41148936 57.51981525 35.49560547 61.35522461 C36.56427572 65.13624784 37.62880224 68.91843143 38.69311523 72.70068359 C39.02113632 73.85874008 39.34915741 75.01679657 39.68711853 76.20994568 C39.98485672 77.27028519 40.28259491 78.33062469 40.58935547 79.4230957 C40.85248032 80.35584824 41.11560516 81.28860077 41.38670349 82.24961853 C41.94702148 84.48583984 41.94702148 84.48583984 41.94702148 86.48583984 C38.17633317 86.57282485 34.40590217 86.62622563 30.63452148 86.67333984 C29.56266602 86.69847656 28.49081055 86.72361328 27.38647461 86.74951172 C25.84443359 86.76401367 25.84443359 86.76401367 24.27124023 86.77880859 C22.84944458 86.80237427 22.84944458 86.80237427 21.39892578 86.82641602 C18.94702148 86.48583984 18.94702148 86.48583984 17.20092773 85.19091797 C15.1321273 82.37773608 14.27932719 79.09609832 13.25952148 75.79833984 C12.49639648 73.38521484 11.73327148 70.97208984 10.94702148 68.48583984 C2.69702148 68.48583984 -5.55297852 68.48583984 -14.05297852 68.48583984 C-15.04297852 72.44583984 -16.03297852 76.40583984 -17.05297852 80.48583984 C-17.68942211 82.49566172 -18.33694512 84.50297812 -19.05297852 86.48583984 C-21.69297852 86.48583984 -24.33297852 86.48583984 -27.05297852 86.48583984 C-28.09064006 83.29965044 -27.9981178 81.3974932 -27.02416992 78.20922852 C-26.77254593 77.36758148 -26.52092194 76.52593445 -26.26167297 75.65878296 C-25.97881943 74.74964142 -25.69596588 73.84049988 -25.40454102 72.90380859 C-25.11649094 71.94906647 -24.82844086 70.99432434 -24.53166199 70.01065063 C-23.58972941 66.89530723 -22.63404028 63.78437322 -21.67797852 60.67333984 C-20.70408061 57.46964697 -19.73331862 54.26501535 -18.76283264 51.06028748 C-18.11470165 48.92074167 -17.46539779 46.78155081 -16.81492615 44.64271545 C-14.89430925 38.31657982 -13.02271221 31.97963828 -11.22094727 25.61865234 C-11.01433472 24.89162613 -10.80772217 24.16459991 -10.59484863 23.4155426 C-9.65558319 20.10529015 -8.72556019 16.7930003 -7.80737305 13.47680664 C-7.48236816 12.33123291 -7.15736328 11.18565918 -6.82250977 10.00537109 C-6.55027588 9.02673096 -6.27804199 8.04809082 -5.99755859 7.03979492 C-3.71943627 0.88020908 -3.71943627 0.88020908 0 0 Z " fill="#000100" transform="translate(547.052978515625,239.51416015625)"/>
<path d="M0 0 C3.10099313 2.47966482 4.83407187 5.55974381 6.79638672 8.97851562 C8.77473303 12.30117433 10.97209254 15.47494585 13.13696289 18.67797852 C14.99178552 21.42533276 16.8270362 24.18476039 18.65625 26.94921875 C21.86669393 31.79989787 25.08960524 36.64195816 28.32421875 41.4765625 C29.46382392 43.19261132 30.59101627 44.9169543 31.70703125 46.6484375 C32.23683594 47.46570313 32.76664063 48.28296875 33.3125 49.125 C33.98732422 50.18074219 33.98732422 50.18074219 34.67578125 51.2578125 C36.06017071 53.27610241 36.06017071 53.27610241 39 55 C39.33 37.18 39.66 19.36 40 1 C43.465 0.505 43.465 0.505 47 0 C48.7772169 1.7772169 48.11988099 4.152472 48.12442017 6.51863098 C48.11902725 7.70545723 48.11902725 7.70545723 48.11352539 8.91625977 C48.11367142 9.74545929 48.11381744 10.57465881 48.1139679 11.4289856 C48.11326851 14.18315198 48.10547493 16.93725161 48.09765625 19.69140625 C48.09579216 21.59569766 48.09436822 23.49998955 48.09336853 25.40428162 C48.08954263 30.42667963 48.07971173 35.44904892 48.06866455 40.47143555 C48.05845198 45.5922812 48.05387124 50.71313148 48.04882812 55.83398438 C48.03808953 65.88933557 48.02101224 75.9446654 48 86 C45.10259378 86.13539281 42.21154379 86.23426829 39.3125 86.3125 C38.49587891 86.35439453 37.67925781 86.39628906 36.83789062 86.43945312 C32.51153034 86.52703127 30.62778812 86.48826306 27.11210632 83.75393677 C23.46050629 78.99268234 23.46050629 78.99268234 21.89379883 76.62451172 C21.34005081 75.79370087 20.7863028 74.96289001 20.21577454 74.10690308 C19.63538925 73.22342194 19.05500397 72.3399408 18.45703125 71.4296875 C17.84736008 70.51164337 17.2376889 69.59359924 16.60954285 68.6477356 C14.671724 65.72707271 12.74201104 62.80115633 10.8125 59.875 C9.50378915 57.89938578 8.19454991 55.92412147 6.88476562 53.94921875 C4.0082358 49.60989758 1.13679909 45.26725788 -1.73014832 40.92160034 C-2.81603983 39.27837734 -3.90745995 37.63881007 -5 36 C-5 35.01 -5 34.02 -5 33 C-5.66 33 -6.32 33 -7 33 C-7 50.49 -7 67.98 -7 86 C-9.31 86 -11.62 86 -14 86 C-15.55879555 82.88240889 -15.12952133 79.57485514 -15.11352539 76.15380859 C-15.11367142 75.34397018 -15.11381744 74.53413177 -15.1139679 73.69975281 C-15.11326977 71.01595404 -15.10548204 68.33222419 -15.09765625 65.6484375 C-15.09579171 63.79041583 -15.09436798 61.93239367 -15.09336853 60.07437134 C-15.08954615 55.17857512 -15.07971823 50.28280845 -15.06866455 45.38702393 C-15.05844444 40.39343669 -15.05386962 35.39984468 -15.04882812 30.40625 C-15.03809573 20.60415366 -15.02102264 10.80207929 -15 1 C-10.34478332 -1.32760834 -4.98162986 -1.03169849 0 0 Z " fill="#000100" transform="translate(616,240)"/>
<path d="M0 0 C3.98409026 0.07871968 6.08459599 0.14504773 9.16015625 2.7421875 C11.27514984 5.66930388 13.07358499 8.68258654 14.875 11.8125 C16.05399408 13.62055975 17.26411164 15.40493236 18.47802734 17.18969727 C19.7674253 19.08815633 21.03671493 20.99865693 22.30078125 22.9140625 C28.10616528 31.70689671 33.93031271 40.48801675 39.875 49.1875 C40.596875 50.24710937 41.31875 51.30671875 42.0625 52.3984375 C43.64875235 54.88552225 43.64875235 54.88552225 45.875 55.8125 C46.205 37.9925 46.535 20.1725 46.875 1.8125 C50.34 1.3175 50.34 1.3175 53.875 0.8125 C55.6522169 2.5897169 54.99488099 4.964972 54.99942017 7.33113098 C54.99402725 8.51795723 54.99402725 8.51795723 54.98852539 9.72875977 C54.98867142 10.55795929 54.98881744 11.38715881 54.9889679 12.2414856 C54.98826851 14.99565198 54.98047493 17.74975161 54.97265625 20.50390625 C54.97079216 22.40819766 54.96936822 24.31248955 54.96836853 26.21678162 C54.96454263 31.23917963 54.95471173 36.26154892 54.94366455 41.28393555 C54.93345198 46.4047812 54.92887124 51.52563148 54.92382812 56.64648438 C54.91308953 66.70183557 54.89601224 76.7571654 54.875 86.8125 C51.97759378 86.94789281 49.08654379 87.04676829 46.1875 87.125 C45.37087891 87.16689453 44.55425781 87.20878906 43.71289062 87.25195312 C39.36196902 87.34002846 37.49877139 87.30004477 33.96691895 84.53952026 C30.44183549 79.94423036 30.44183549 79.94423036 29.09179688 77.86767578 C28.60779419 77.1298587 28.1237915 76.39204163 27.62512207 75.63186646 C27.11976929 74.84842865 26.6144165 74.06499084 26.09375 73.2578125 C25.55778198 72.43803925 25.02181396 71.61826599 24.46960449 70.77365112 C22.76569056 68.16527337 21.07003085 65.55165711 19.375 62.9375 C17.67840005 60.33154178 15.98008104 57.72671891 14.28039551 55.12277222 C13.22641141 53.50692073 12.17444979 51.88974753 11.12487793 50.27102661 C8.83866045 46.75612184 6.52001038 43.31094286 4.01367188 39.94873047 C1.875 36.8125 1.875 36.8125 1.875 33.8125 C1.215 33.8125 0.555 33.8125 -0.125 33.8125 C-0.125 51.3025 -0.125 68.7925 -0.125 86.8125 C-2.105 86.8125 -4.085 86.8125 -6.125 86.8125 C-8.62937164 84.30812836 -8.36811886 82.79934863 -8.39605713 79.38204956 C-8.39200867 78.62562164 -8.38796021 77.86919373 -8.38378906 77.08984375 C-8.38904602 75.89453537 -8.38904602 75.89453537 -8.39440918 74.67507935 C-8.40323278 72.03329838 -8.39737518 69.39178383 -8.390625 66.75 C-8.39197147 64.91918893 -8.39391185 63.0883782 -8.39642334 61.25756836 C-8.39937545 57.4174459 -8.39507417 53.57741637 -8.38574219 49.73730469 C-8.3743476 44.80731306 -8.3809066 39.87753917 -8.39288712 34.94755554 C-8.40010337 31.16612091 -8.39781887 27.38473817 -8.39263153 23.603302 C-8.39129438 21.78516616 -8.39294502 19.96702566 -8.39759064 18.14889526 C-8.40265204 15.61085474 -8.39495123 13.07317016 -8.38378906 10.53515625 C-8.38783752 9.77872833 -8.39188599 9.02230042 -8.39605713 8.24295044 C-8.34065433 1.46629781 -6.57858881 0.45027464 0 0 Z " fill="#000100" transform="translate(1094.125,239.1875)"/>
<path d="M0 0 C1.55170898 -0.01429802 1.55170898 -0.01429802 3.13476562 -0.02888489 C4.81602539 -0.02751778 4.81602539 -0.02751778 6.53125 -0.02612305 C7.67787109 -0.03040817 8.82449219 -0.0346933 10.00585938 -0.03910828 C12.43358702 -0.04485918 14.8613319 -0.04534628 17.2890625 -0.04101562 C21.01592194 -0.0378548 24.74198876 -0.06130943 28.46875 -0.08666992 C30.82291566 -0.08894263 33.17708347 -0.08964654 35.53125 -0.08862305 C36.65208984 -0.09783279 37.77292969 -0.10704254 38.92773438 -0.11653137 C39.96220703 -0.11030258 40.99667969 -0.10407379 42.0625 -0.09765625 C42.97580078 -0.09828568 43.88910156 -0.0989151 44.83007812 -0.0995636 C45.9196582 0.08567619 45.9196582 0.08567619 47.03125 0.2746582 C49.03125 3.2746582 49.03125 3.2746582 49.03125 9.2746582 C33.68625 9.7696582 33.68625 9.7696582 18.03125 10.2746582 C18.36125 17.8646582 18.69125 25.4546582 19.03125 33.2746582 C26.51017395 33.52417435 26.51017395 33.52417435 33.98974609 33.75268555 C34.91867676 33.7882959 35.84760742 33.82390625 36.8046875 33.8605957 C37.75778809 33.8920166 38.71088867 33.9234375 39.69287109 33.95581055 C42.03125 34.2746582 42.03125 34.2746582 44.03125 36.2746582 C44.03125 38.5846582 44.03125 40.8946582 44.03125 43.2746582 C35.45125 43.6046582 26.87125 43.9346582 18.03125 44.2746582 C18.52625 59.6196582 18.52625 59.6196582 19.03125 75.2746582 C30.25125 75.6046582 41.47125 75.9346582 53.03125 76.2746582 C54.63850635 79.48917089 54.08873185 82.71078356 54.03125 86.2746582 C46.37317785 86.32094989 38.71512016 86.35651123 31.05694008 86.37828255 C27.50112601 86.38873044 23.9454075 86.40290779 20.38964844 86.42553711 C16.304027 86.45137652 12.21850631 86.46112264 8.1328125 86.4699707 C6.85258209 86.48029327 5.57235168 86.49061584 4.25332642 86.50125122 C2.48171646 86.50147781 2.48171646 86.50147781 0.67431641 86.50170898 C-0.36937103 86.50615021 -1.41305847 86.51059143 -2.4883728 86.51516724 C-4.96875 86.2746582 -4.96875 86.2746582 -6.96875 84.2746582 C-7.167146 81.66542416 -7.24150976 79.16233293 -7.22753906 76.55200195 C-7.23279602 75.35669357 -7.23279602 75.35669357 -7.23815918 74.13723755 C-7.24698278 71.49545658 -7.24112518 68.85394204 -7.234375 66.2121582 C-7.23572147 64.38134713 -7.23766185 62.55053641 -7.24017334 60.71972656 C-7.24312545 56.8796041 -7.23882417 53.03957457 -7.22949219 49.19946289 C-7.2180976 44.26947126 -7.2246566 39.33969738 -7.23663712 34.40971375 C-7.24385337 30.62827911 -7.24156887 26.84689637 -7.23638153 23.06546021 C-7.23504438 21.24732437 -7.23669502 19.42918386 -7.24134064 17.61105347 C-7.24640204 15.07301294 -7.23870123 12.53532837 -7.22753906 9.99731445 C-7.23158752 9.24088654 -7.23563599 8.48445862 -7.23980713 7.70510864 C-7.18957984 1.56150355 -6.12478142 0.03089811 0 0 Z " fill="#000100" transform="translate(847.96875,239.725341796875)"/>
<path d="M0 0 C1.37447548 0.00213753 1.37447548 0.00213753 2.77671814 0.00431824 C3.81441849 0.00124161 4.85211884 -0.00183502 5.92126465 -0.00500488 C7.60723 0.00577339 7.60723 0.00577339 9.32725525 0.01676941 C11.0507444 0.01745674 11.0507444 0.01745674 12.80905151 0.01815796 C15.24099254 0.0211829 17.67293159 0.02907637 20.10484314 0.04142761 C23.8424612 0.05967889 27.57983167 0.06193739 31.31748962 0.06169128 C33.67491366 0.06660644 36.032336 0.07243475 38.38975525 0.07926941 C40.07875694 0.08093864 40.07875694 0.08093864 41.80187988 0.0826416 C42.83642807 0.08902145 43.87097626 0.09540131 44.93687439 0.10197449 C46.31015648 0.10769218 46.31015648 0.10769218 47.71118164 0.11352539 C49.792099 0.24723816 49.792099 0.24723816 50.792099 1.24723816 C50.792099 3.88723816 50.792099 6.52723816 50.792099 9.24723816 C40.892099 9.57723816 30.992099 9.90723816 20.792099 10.24723816 C20.792099 17.83723816 20.792099 25.42723816 20.792099 33.24723816 C22.51299744 33.3078241 24.23389587 33.36841003 26.00694275 33.43083191 C28.2478376 33.51521707 30.48872253 33.59986607 32.729599 33.68473816 C33.86590759 33.72405457 35.00221619 33.76337097 36.17295837 33.80387878 C37.25254822 33.84577332 38.33213806 33.88766785 39.44444275 33.93083191 C40.44467468 33.96748962 41.44490662 34.00414734 42.47544861 34.04191589 C44.792099 34.24723816 44.792099 34.24723816 45.792099 35.24723816 C45.792099 37.88723816 45.792099 40.52723816 45.792099 43.24723816 C33.417099 43.74223816 33.417099 43.74223816 20.792099 44.24723816 C20.792099 54.47723816 20.792099 64.70723816 20.792099 75.24723816 C23.23487244 75.3078241 25.67764587 75.36841003 28.19444275 75.43083191 C30.55083963 75.49257614 32.9071863 75.55598249 35.26353455 75.61955261 C36.90574203 75.66296113 38.54799639 75.70463174 40.19029236 75.74455261 C42.54598645 75.80211256 44.90144328 75.86584708 47.25694275 75.93083191 C47.99548996 75.9475444 48.73403717 75.9642569 49.4949646 75.98147583 C54.67822729 76.13336645 54.67822729 76.13336645 55.792099 77.24723816 C55.86389864 78.76651854 55.87601907 80.28891298 55.854599 81.80973816 C55.84557556 82.63602722 55.83655212 83.46231628 55.82725525 84.31364441 C55.81565369 84.95173035 55.80405212 85.58981628 55.792099 86.24723816 C48.2644112 86.29353106 40.73673812 86.32909181 33.20894051 86.3508625 C29.71365973 86.36131014 26.21847616 86.37548699 22.72325134 86.39811707 C18.70712844 86.42395769 14.69110803 86.43370282 10.6749115 86.44255066 C8.78737656 86.45803452 8.78737656 86.45803452 6.86170959 86.47383118 C5.70065704 86.47398224 4.53960449 86.4741333 3.34336853 86.47428894 C2.31744598 86.47873016 1.29152344 86.48317139 0.23451233 86.48774719 C-2.207901 86.24723816 -2.207901 86.24723816 -4.207901 84.24723816 C-4.406297 81.63800411 -4.48066076 79.13491289 -4.46669006 76.52458191 C-4.47194702 75.32927353 -4.47194702 75.32927353 -4.47731018 74.1098175 C-4.48613379 71.46803654 -4.48027618 68.82652199 -4.473526 66.18473816 C-4.47487247 64.35392709 -4.47681285 62.52311636 -4.47932434 60.69230652 C-4.48227645 56.85218406 -4.47797517 53.01215452 -4.46864319 49.17204285 C-4.4572486 44.24205122 -4.46380761 39.31227733 -4.47578812 34.3822937 C-4.48300437 30.60085907 -4.48071987 26.81947633 -4.47553253 23.03804016 C-4.47419538 21.21990432 -4.47584602 19.40176382 -4.48049164 17.58363342 C-4.48555304 15.0455929 -4.47785223 12.50790832 -4.46669006 9.96989441 C-4.47073853 9.21346649 -4.47478699 8.45703857 -4.47895813 7.6776886 C-4.42023555 0.49497278 -4.42023555 0.49497278 0 0 Z " fill="#000100" transform="translate(1018.2079010009766,239.7527618408203)"/>
<path d="M0 0 C0.74886475 0.00523682 1.49772949 0.01047363 2.26928711 0.01586914 C3.07817383 0.0190918 3.88706055 0.02231445 4.72045898 0.02563477 C5.5705957 0.03401367 6.42073242 0.04239258 7.29663086 0.05102539 C8.15063477 0.05553711 9.00463867 0.06004883 9.88452148 0.06469727 C12.00108749 0.07652166 14.11761771 0.0944577 16.23413086 0.11352539 C17.29387186 4.04768687 17.1258714 6.4688291 15.86303711 10.32446289 C15.37915527 11.80946289 15.37915527 11.80946289 14.88549805 13.32446289 C14.52617187 14.36860352 14.1668457 15.41274414 13.79663086 16.48852539 C13.24410645 18.10500977 13.24410645 18.10500977 12.68041992 19.75415039 C1.65419554 51.11261973 -22.18689897 77.99432626 -51.96118164 92.88745117 C-76.01507727 104.40683085 -76.01507727 104.40683085 -83.76586914 102.11352539 C-83.84676456 99.34210822 -83.90630976 96.5730472 -83.95336914 93.80102539 C-83.97850586 93.0153418 -84.00364258 92.2296582 -84.02954102 91.42016602 C-84.03920898 90.6628418 -84.04887695 89.90551758 -84.05883789 89.12524414 C-84.07454834 88.42874756 -84.09025879 87.73225098 -84.10644531 87.01464844 C-83.6558498 84.49938873 -82.75067418 83.68032585 -80.76586914 82.11352539 C-78.31229674 81.113709 -75.89379263 80.21631472 -73.39086914 79.36352539 C-46.21545172 69.57951552 -23.50424573 49.34194365 -10.83227539 23.28149414 C-7.96091904 16.78693004 -5.64835998 10.11793707 -3.52758789 3.34399414 C-2.43914476 0.15680939 -2.43914476 0.15680939 0 0 Z " fill="#605DFC" transform="translate(317.765869140625,222.886474609375)"/>
<path d="M0 0 C36.79029173 10.94705873 66.04455964 32.16245438 85.296875 65.9140625 C90.58938349 75.72712521 93.99354045 86.18116259 97.30761719 96.79394531 C98.16987751 99.54125995 99.07873071 102.27196959 100 105 C96.70798357 104.86145912 93.41649291 104.71292976 90.125 104.5625 C89.18785156 104.52318359 88.25070312 104.48386719 87.28515625 104.44335938 C86.38925781 104.40146484 85.49335938 104.35957031 84.5703125 104.31640625 C83.74289551 104.27974854 82.91547852 104.24309082 82.06298828 104.20532227 C80 104 80 104 78 103 C77.05539922 100.46702593 76.20020446 97.9466645 75.375 95.375 C65.4053984 65.95848298 45.06020907 41.98957162 17.32421875 28.05078125 C11.03038823 25.00013464 4.55353372 22.43253435 -2 20 C-2.05379226 17.04142591 -2.09357093 14.08382279 -2.125 11.125 C-2.14175781 10.28324219 -2.15851563 9.44148438 -2.17578125 8.57421875 C-2.18222656 7.76855469 -2.18867188 6.96289062 -2.1953125 6.1328125 C-2.21102295 5.01737061 -2.21102295 5.01737061 -2.22705078 3.87939453 C-2 2 -2 2 0 0 Z " fill="#605DFC" transform="translate(237,63)"/>
<path d="M0 0 C6.27 0 12.54 0 19 0 C19.47308594 1.24652344 19.94617188 2.49304688 20.43359375 3.77734375 C26.45059742 19.37778206 32.78266481 34.38331918 44 47 C44.58910156 47.73089844 45.17820313 48.46179688 45.78515625 49.21484375 C58.07987583 64.06770032 75.10605016 73.19887128 92.6015625 80.5546875 C95.10500684 81.61937073 97.56676611 82.78338305 100 84 C100 90.6 100 97.2 100 104 C69.4174235 97.20387189 41.93487602 78.92190349 23 54 C22.39542969 53.22269531 21.79085937 52.44539063 21.16796875 51.64453125 C13.61798975 41.46995459 8.51604682 29.85998271 4.0625 18.0625 C3.76794922 17.29429932 3.47339844 16.52609863 3.16992188 15.73461914 C2.89857422 14.98817139 2.62722656 14.24172363 2.34765625 13.47265625 C1.99199585 12.50211304 1.99199585 12.50211304 1.62915039 11.51196289 C0.68755656 7.75252986 0.42798358 3.85185224 0 0 Z " fill="#605DFC" transform="translate(72,222)"/>
<path d="M0 0 C0 6.27 0 12.54 0 19 C-1.26972656 19.4846875 -2.53945312 19.969375 -3.84765625 20.46875 C-19.66981712 26.59350724 -33.74476337 33.26207833 -47 44 C-47.70382813 44.53882813 -48.40765625 45.07765625 -49.1328125 45.6328125 C-66.09660994 59.30000153 -75.12616941 80.31542352 -83 100 C-89.27 100 -95.54 100 -102 100 C-103.12750897 95.4899641 -103.12750897 95.4899641 -101.91796875 92.12109375 C-101.65056885 91.37408203 -101.38316895 90.62707031 -101.10766602 89.85742188 C-100.80401123 89.05884766 -100.50035645 88.26027344 -100.1875 87.4375 C-99.87417725 86.60412109 -99.56085449 85.77074219 -99.23803711 84.91210938 C-92.18337876 66.75355841 -82.38897487 51.15149605 -69 37 C-67.86111328 35.76443359 -67.86111328 35.76443359 -66.69921875 34.50390625 C-51.90472723 18.98300762 -32.02472376 8.00860243 -11.8125 1.1875 C-11.07676758 0.9390332 -10.34103516 0.69056641 -9.58300781 0.43457031 C-5.74024901 -0.76026761 -4.01281068 -1.00320267 0 0 Z " fill="#605DFC" transform="translate(176,65)"/>
<path d="M0 0 C1.29797012 -0.00315216 2.59594025 -0.00630432 3.9332428 -0.009552 C5.35580479 -0.00776236 6.77836647 -0.00571144 8.20092773 -0.00341797 C9.65298987 -0.00409125 11.1050519 -0.00506148 12.55711365 -0.00631714 C15.60107496 -0.00779251 18.64500694 -0.0056444 21.68896484 -0.00097656 C25.59889079 0.00472571 29.50874817 0.00143757 33.41867161 -0.00454903 C36.41684999 -0.00815466 39.41501198 -0.00701614 42.41319084 -0.00442123 C43.8553563 -0.00375223 45.29752322 -0.00457946 46.73968697 -0.00690079 C48.75093687 -0.00942785 50.76219197 -0.00489626 52.7734375 0 C53.9199025 0.00079559 55.06636749 0.00159119 56.24757385 0.00241089 C58.82202148 0.12939453 58.82202148 0.12939453 59.82202148 1.12939453 C59.9631731 3.79998304 59.86449256 6.45371691 59.82202148 9.12939453 C58.9665271 9.16697876 58.9665271 9.16697876 58.09375 9.20532227 C55.52375992 9.32096002 52.95416621 9.44383077 50.38452148 9.56689453 C49.48668945 9.60621094 48.58885742 9.64552734 47.66381836 9.68603516 C46.3828125 9.74887695 46.3828125 9.74887695 45.07592773 9.81298828 C44.28516846 9.849646 43.49440918 9.88630371 42.6796875 9.92407227 C40.80800708 9.9350271 40.80800708 9.9350271 39.82202148 11.12939453 C39.69717994 13.47092295 39.63602858 15.78447038 39.61669922 18.12768555 C39.60679962 18.85934937 39.59690002 19.59101318 39.58670044 20.34484863 C39.55499765 22.77429925 39.53029355 25.20376946 39.50561523 27.63330078 C39.48505327 29.3133954 39.46405701 30.99348476 39.44264221 32.67356873 C39.38734323 37.10407256 39.33796861 41.53462368 39.28979492 45.96520996 C39.23963688 50.48287178 39.18392115 55.00046461 39.12866211 59.51806641 C39.02098488 68.38845023 38.9195613 77.25889386 38.82202148 86.12939453 C34.86374913 86.187251 30.90558479 86.2229417 26.94702148 86.25439453 C25.8190918 86.27115234 24.69116211 86.28791016 23.52905273 86.30517578 C21.91450195 86.31484375 21.91450195 86.31484375 20.26733398 86.32470703 C19.27233887 86.33518066 18.27734375 86.3456543 17.25219727 86.35644531 C14.82202148 86.12939453 14.82202148 86.12939453 12.82202148 84.12939453 C12.54354858 81.07955933 12.54354858 81.07955933 12.50317383 77.109375 C12.4931282 76.38731873 12.48308258 75.66526245 12.47273254 74.92132568 C12.44179076 72.52975272 12.42483522 70.13829224 12.40795898 67.74658203 C12.38925614 66.09033228 12.3696834 64.43409214 12.34927368 62.77786255 C12.29785294 58.41479144 12.25828063 54.05168941 12.22113037 49.68847656 C12.18115286 45.23771451 12.13003208 40.78708221 12.07983398 36.33642578 C11.98295706 27.60083719 11.89859016 18.86518461 11.82202148 10.12939453 C11.25169189 10.10433838 10.6813623 10.07928223 10.09375 10.0534668 C7.52375992 9.93782904 4.95416621 9.81495829 2.38452148 9.69189453 C1.48668945 9.65257812 0.58885742 9.61326172 -0.33618164 9.57275391 C-1.19018555 9.53085938 -2.04418945 9.48896484 -2.92407227 9.44580078 C-4.11021118 9.39081421 -4.11021118 9.39081421 -5.3203125 9.3347168 C-7.17797852 9.12939453 -7.17797852 9.12939453 -8.17797852 8.12939453 C-8.21890789 5.7964202 -8.22039575 3.46234229 -8.17797852 1.12939453 C-5.39344069 -0.26287438 -3.11538516 0.00216043 0 0 Z " fill="#000100" transform="translate(1168.177978515625,239.87060546875)"/>
<path d="M0 0 C5.24135473 3.49423649 7.93174365 6.89412643 9.55078125 13.11694336 C11.5470158 23.25145284 11.30127595 33.46456746 11.26074219 43.75390625 C11.25002522 46.99237799 11.26067995 50.23029514 11.2734375 53.46875 C11.2936016 81.2271008 11.2936016 81.2271008 5 90 C0.70801011 92.86132659 -2.97021167 92.57281521 -8 92 C-11.375 90.8125 -11.375 90.8125 -14 88 C-19.31846909 75.7042467 -19.18665818 62.8351747 -19.18530273 49.6887207 C-19.18747955 47.33461139 -19.20566695 44.98097942 -19.22460938 42.62695312 C-19.33021274 14.61414563 -19.33021274 14.61414563 -13 5 C-8.79283808 0.99317912 -5.85529214 -0.67561063 0 0 Z " fill="#FCFDFF" transform="translate(680,78)"/>
<path d="M0 0 C9.24261743 8.9190247 8.71192434 23.4167261 9.11206055 35.33886719 C9.31666085 47.47908072 9.27649864 59.64120982 8.3125 71.75 C8.25924561 72.57564453 8.20599121 73.40128906 8.15112305 74.25195312 C7.5007902 81.05543522 4.8330598 86.1669402 0 91 C-4.31106883 91.66920186 -8.86596339 91.87922308 -12.953125 90.1953125 C-17.43465971 86.91338052 -18.90358874 82.19809369 -20 77 C-20.9208199 70.82612587 -21.16048335 64.81532656 -21.16796875 58.578125 C-21.17129715 57.5968866 -21.17462555 56.61564819 -21.17805481 55.60467529 C-21.18309459 53.53723618 -21.18546405 51.469789 -21.18530273 49.40234375 C-21.18748376 46.27329797 -21.20565628 43.14460833 -21.22460938 40.015625 C-21.30475611 12.12470157 -21.30475611 12.12470157 -15 3 C-10.69787541 -1.04138977 -5.57840065 -2.20394279 0 0 Z " fill="#FCFDFF" transform="translate(792,79)"/>
<path d="M0 0 C1.7115477 0.0001133 1.7115477 0.0001133 3.45767212 0.00022888 C4.69415497 0.00539017 5.93063782 0.01055145 7.20458984 0.01586914 C8.46693451 0.01728409 9.72927917 0.01869904 11.02987671 0.02015686 C14.38691033 0.02481461 17.74387635 0.03380131 21.10089111 0.04486084 C24.52607641 0.05508769 27.95126868 0.05965721 31.37646484 0.06469727 C38.09783777 0.07574301 44.81917865 0.09249346 51.54052734 0.11352539 C52.20052734 1.76352539 52.86052734 3.41352539 53.54052734 5.11352539 C54.25240707 5.12383286 54.9642868 5.13414032 55.69773865 5.14476013 C62.39335561 5.24257437 69.08888252 5.34506543 75.78434658 5.45286465 C79.22688474 5.50812419 82.66943134 5.56154886 86.11206055 5.61083984 C90.06617261 5.6675334 94.02013679 5.73210034 97.97412109 5.79711914 C99.8365873 5.82218788 99.8365873 5.82218788 101.73667908 5.84776306 C102.87778641 5.86770828 104.01889374 5.8876535 105.19458008 5.90820312 C106.71014748 5.93151955 106.71014748 5.93151955 108.2563324 5.95530701 C110.54052734 6.11352539 110.54052734 6.11352539 111.54052734 7.11352539 C111.54052734 9.42352539 111.54052734 11.73352539 111.54052734 14.11352539 C83.32552734 14.60852539 83.32552734 14.60852539 54.54052734 15.11352539 C53.88052734 16.76352539 53.22052734 18.41352539 52.54052734 20.11352539 C44.86516107 20.1366536 37.18979839 20.15444292 29.51440525 20.16533756 C25.95075313 20.17056535 22.38712477 20.17766108 18.82348633 20.18896484 C14.73046637 20.20186715 10.63747155 20.20675445 6.54443359 20.21118164 C4.61634605 20.21892357 4.61634605 20.21892357 2.64930725 20.2268219 C0.877584 20.2269352 0.877584 20.2269352 -0.92993164 20.22705078 C-2.49879372 20.2303817 -2.49879372 20.2303817 -4.09934998 20.23377991 C-6.45947266 20.11352539 -6.45947266 20.11352539 -7.45947266 19.11352539 C-7.5457914 17.77085126 -7.56653739 16.42378217 -7.55712891 15.07836914 C-7.55390625 14.26948242 -7.55068359 13.4605957 -7.54736328 12.62719727 C-7.53898437 11.77706055 -7.53060547 10.92692383 -7.52197266 10.05102539 C-7.51746094 9.19702148 -7.51294922 8.34301758 -7.50830078 7.46313477 C-7.49647639 5.34656876 -7.47854034 3.23003854 -7.45947266 1.11352539 C-4.84425481 -0.19408353 -2.92833865 -0.00645009 0 0 Z " fill="#605DFC" transform="translate(51.45947265625,184.886474609375)"/>
<path d="M0 0 C1.65 0.33 3.3 0.66 5 1 C5.33 19.81 5.66 38.62 6 58 C7.65 58.66 9.3 59.32 11 60 C11 79.8 11 99.6 11 120 C-7 120 -7 120 -9 119 C-9.06949629 111.6199985 -9.12280914 104.2400675 -9.15543652 96.85980511 C-9.17109574 93.43286777 -9.19233804 90.00615423 -9.22631836 86.5793457 C-9.26513514 82.64016392 -9.27970716 78.70107291 -9.29296875 74.76171875 C-9.30845261 73.53039719 -9.32393646 72.29907562 -9.33988953 71.03044128 C-9.34011612 69.88948502 -9.34034271 68.74852875 -9.34057617 67.57299805 C-9.35056892 66.06409248 -9.35056892 66.06409248 -9.36076355 64.52470398 C-9 62 -9 62 -7.72871399 60.15168762 C-6 59 -6 59 -2 59 C-2.00444122 58.29034088 -2.00888245 57.58068176 -2.01345825 56.84951782 C-2.0534948 50.16902932 -2.08396388 43.48857419 -2.10362434 36.80799294 C-2.1140717 33.37324541 -2.12824805 29.93859683 -2.15087891 26.50390625 C-2.17672063 22.55730362 -2.18646493 18.61074137 -2.1953125 14.6640625 C-2.20563507 13.42757965 -2.21595764 12.1910968 -2.22659302 10.91714478 C-2.22674408 9.77611298 -2.22689514 8.63508118 -2.22705078 7.45947266 C-2.231492 6.451315 -2.23593323 5.44315735 -2.24050903 4.40444946 C-2 2 -2 2 0 0 Z " fill="#605DFC" transform="translate(202,235)"/>
<path d="M0 0 C0.74121094 0.00515625 1.48242188 0.0103125 2.24609375 0.015625 C7.72069225 0.09569225 7.72069225 0.09569225 8.875 1.25 C8.96881302 3.09118029 8.99243954 4.93597641 8.98852539 6.77954102 C8.98844986 7.96068985 8.98837433 9.14183868 8.98829651 10.35877991 C8.98313522 11.6441716 8.97797394 12.92956329 8.97265625 14.25390625 C8.9712413 15.56205795 8.96982635 16.87020966 8.96836853 18.21800232 C8.9645441 21.70162859 8.95471446 25.18521339 8.94366455 28.66882324 C8.93344882 32.22126708 8.92887056 35.77371759 8.92382812 39.32617188 C8.91309212 46.30079832 8.8960166 53.27539717 8.875 60.25 C7.225 60.91 5.575 61.57 3.875 62.25 C3.545 81.06 3.215 99.87 2.875 119.25 C0.895 119.25 -1.085 119.25 -3.125 119.25 C-4.84294901 117.53205099 -4.29422129 115.25061587 -4.33032227 112.90405273 C-4.35026749 111.7629454 -4.37021271 110.62183807 -4.39076233 109.44615173 C-4.40747482 108.2045076 -4.42418732 106.96286346 -4.44140625 105.68359375 C-4.4725779 103.78795433 -4.4725779 103.78795433 -4.50437927 101.85401917 C-4.55883714 98.48881367 -4.6090428 95.12359827 -4.65722656 91.75830078 C-4.70739759 88.32644099 -4.76310655 84.89467169 -4.81835938 81.46289062 C-4.92570191 74.72533239 -5.02744325 67.98770664 -5.125 61.25 C-7.105 60.59 -9.085 59.93 -11.125 59.25 C-11.19449924 52.00038346 -11.24781062 44.7508387 -11.28043652 37.50095654 C-11.29609511 34.13455123 -11.31733621 30.76837377 -11.35131836 27.40209961 C-11.38761749 23.53232751 -11.4047075 19.66287974 -11.41796875 15.79296875 C-11.43345261 14.58352097 -11.44893646 13.37407318 -11.46488953 12.12797546 C-11.46511612 11.00703995 -11.46534271 9.88610443 -11.46557617 8.73120117 C-11.47223801 7.74302902 -11.47889984 6.75485687 -11.48576355 5.73674011 C-11.125 3.25 -11.125 3.25 -9.83857727 1.42793274 C-6.88416141 -0.60296673 -3.45119347 -0.09704586 0 0 Z " fill="#605DFC" transform="translate(204.125,35.75)"/>
<path d="M0 0 C1.29997925 0.00303635 1.29997925 0.00303635 2.6262207 0.00613403 C3.51027588 0.00517731 4.39433105 0.00422058 5.30517578 0.00323486 C7.178142 0.00255302 9.05111056 0.0044076 10.92407227 0.00857544 C13.80140458 0.01392364 16.67858078 0.0086306 19.5559082 0.00222778 C21.37101272 0.00288856 23.18611713 0.00416972 25.0012207 0.00613403 C25.86787354 0.0041098 26.73452637 0.00208557 27.62744141 0 C33.69877061 0.02399644 33.69877061 0.02399644 34.8137207 1.13894653 C34.8137207 7.40894653 34.8137207 13.67894653 34.8137207 20.13894653 C20.9537207 20.13894653 7.0937207 20.13894653 -7.1862793 20.13894653 C-7.8462793 18.48894653 -8.5062793 16.83894653 -9.1862793 15.13894653 C-9.89815903 15.12863907 -10.61003876 15.1183316 -11.3434906 15.10771179 C-18.03910756 15.00989755 -24.73463447 14.90740649 -31.43009853 14.79960728 C-34.87263669 14.74434774 -38.3151833 14.69092307 -41.7578125 14.64163208 C-45.71192456 14.58493852 -49.66588874 14.52037158 -53.61987305 14.45535278 C-55.48233925 14.43028404 -55.48233925 14.43028404 -57.38243103 14.40470886 C-58.52353836 14.38476364 -59.66464569 14.36481842 -60.84033203 14.3442688 C-62.35589943 14.32095238 -62.35589943 14.32095238 -63.90208435 14.29716492 C-66.1862793 14.13894653 -66.1862793 14.13894653 -67.1862793 13.13894653 C-67.3737793 10.70144653 -67.3737793 10.70144653 -67.1862793 8.13894653 C-65.1862793 6.13894653 -65.1862793 6.13894653 -62.78182983 5.8984375 C-61.26959335 5.90509933 -61.26959335 5.90509933 -59.72680664 5.91189575 C-58.58577484 5.91204681 -57.44474304 5.91219788 -56.26913452 5.91235352 C-54.41441025 5.92783737 -54.41441025 5.92783737 -52.5222168 5.94363403 C-50.6286998 5.94787888 -50.6286998 5.94787888 -48.69692993 5.95220947 C-45.33980986 5.96152522 -41.98296018 5.97949818 -38.62591553 6.00161743 C-35.20074808 6.02207103 -31.77555271 6.03121014 -28.3503418 6.04129028 C-21.62891259 6.06338195 -14.90761156 6.09688277 -8.1862793 6.13894653 C-8.0419043 5.33457153 -7.8975293 4.53019653 -7.7487793 3.70144653 C-6.7067841 -1.04542049 -4.44635783 0.01757387 0 0 Z " fill="#605DFC" transform="translate(311.186279296875,184.86105346679688)"/>
<path d="M0 0 C3.93815975 3.23804247 7.16591853 6.37275559 8.8125 11.3125 C9.47725679 18.76649418 9.45683645 24.28741487 4.8125 30.3125 C-0.29002961 35.04167379 -4.49444273 35.7380034 -11.265625 35.6484375 C-16.8530304 35.00603527 -21.15676377 32.67845346 -24.8203125 28.41015625 C-27.38871445 24.5869065 -29.28104632 20.98981579 -29.1875 16.3125 C-27.12726133 8.85467699 -24.07959246 3.97051436 -17.625 -0.4375 C-11.59914249 -3.52768334 -5.95209312 -3.15110812 0 0 Z " fill="#A1675A" transform="translate(213.1875,178.6875)"/>
<path d="M0 0 C5.45138208 0.14924533 9.73633373 0.88018058 13.8515625 4.765625 C18.09120364 10.21320859 17.87202678 16.05347575 17.87890625 22.7265625 C17.10216577 27.64413326 14.97807169 30.75438454 11.375 34.125 C6.65202564 36.84428827 0.65062939 36.93126156 -4.6875 36.3125 C-7.59191659 33.40808341 -6.94617736 31.24492155 -6.953125 27.1875 C-6.95503845 26.4847998 -6.9569519 25.78209961 -6.95892334 25.05810547 C-6.96028475 23.57193646 -6.95659132 22.08575555 -6.94824219 20.59960938 C-6.93754154 18.32134354 -6.94813839 16.04386623 -6.9609375 13.765625 C-6.9596159 12.32291492 -6.95705349 10.88020534 -6.953125 9.4375 C-6.95086914 8.12007813 -6.94861328 6.80265625 -6.94628906 5.4453125 C-6.53020536 0.4083445 -4.5894752 0.02108488 0 0 Z " fill="#FCFDFF" transform="translate(1067.6875,81.6875)"/>
<path d="M0 0 C14.36891769 3.48522684 24.51140239 10.96547063 32.3125 23.5 C39 34.82539293 39 34.82539293 39 41 C33.25 41.125 33.25 41.125 31 40 C29.93375294 37.87636665 28.92221413 35.7251464 27.9375 33.5625 C22.8250278 22.89482887 15.64061923 14.88376265 4.7578125 9.9921875 C-0.79275694 7.48356715 -0.79275694 7.48356715 -2.125 4.375 C-2 2 -2 2 0 0 Z " fill="#605DFC" transform="translate(217,142)"/>
<path d="M0 0 C1.67542976 0.28604898 3.34385343 0.61781233 5 1 C6.52190664 5.56571991 4.52293641 8.44811902 2.6484375 12.73046875 C-3.98525493 25.88781605 -13.4137944 34.47246156 -27 40 C-29.48822211 40.68362416 -31.40472436 40.94232721 -34 41 C-35 40 -35 40 -35.0625 37.4375 C-35.041875 36.633125 -35.02125 35.82875 -35 35 C-33.865625 34.443125 -32.73125 33.88625 -31.5625 33.3125 C-16.20142112 25.60215472 -7.52592819 17.14308553 -1 1 C-0.67 0.67 -0.34 0.34 0 0 Z " fill="#605DFC" transform="translate(250,206)"/>
<path d="M0 0 C0.556875 1.134375 1.11375 2.26875 1.6875 3.4375 C8.46005762 16.93025395 15.70543718 27.0369955 30.5625 32.25 C31.366875 32.4975 32.17125 32.745 33 33 C34.35439668 35.70879335 34.06501451 38.00933268 34 41 C22.04613391 39.77011666 11.32943271 32.51297797 3.34277344 23.70703125 C-1.48926315 17.56419492 -5.24899476 9.58977019 -7 2 C-2.25 0 -2.25 0 0 0 Z " fill="#605DFC" transform="translate(158,206)"/>
<path d="M0 0 C0 2.31 0 4.62 0 7 C-1.34191406 7.60134766 -1.34191406 7.60134766 -2.7109375 8.21484375 C-18.3333863 15.44388529 -25.70159606 24.64514534 -33 40 C-35.31 40 -37.62 40 -40 40 C-38.86911966 28.6339368 -32.30358867 18.65171816 -24 11 C-17.39665845 5.68570855 -8.62375621 0 0 0 Z " fill="#605DFC" transform="translate(192,144)"/>
<path d="M0 0 C0.66 0 1.32 0 2 0 C4.51928796 8.43548468 7.01452711 16.87609751 9.3125 25.375 C9.80169922 27.18097656 9.80169922 27.18097656 10.30078125 29.0234375 C11 32 11 32 11 35 C4.73 35 -1.54 35 -8 35 C-9.11000616 30.55997534 -8.42061866 28.03168772 -7.12890625 23.828125 C-6.82713722 22.8044986 -6.82713722 22.8044986 -6.51927185 21.76019287 C-5.87633994 19.58722708 -5.21964672 17.41870431 -4.5625 15.25 C-4.12343441 13.77501151 -3.68527271 12.29975364 -3.24804688 10.82421875 C-2.17581718 7.2129394 -1.09122941 3.60558145 0 0 Z " fill="#FCFDFF" transform="translate(701,263)"/>
<path d="M0 0 C0.33 0 0.66 0 1 0 C1.13575439 0.57854736 1.27150879 1.15709473 1.41137695 1.75317383 C2.04307455 4.44009407 2.67730087 7.12640534 3.3125 9.8125 C3.5396167 10.77341553 3.7667334 11.73433105 4.00073242 12.72436523 C5.37661637 18.50425171 6.8264364 24.24475009 8.51953125 29.94140625 C9 32 9 32 9 36 C2.73 36 -3.54 36 -10 36 C-11.17501861 32.47494418 -10.75508969 31.43437529 -9.671875 27.95703125 C-9.36636719 26.96509766 -9.06085937 25.97316406 -8.74609375 24.95117188 C-8.41738281 23.91541016 -8.08867188 22.87964844 -7.75 21.8125 C-7.43675781 20.79607422 -7.12351562 19.77964844 -6.80078125 18.73242188 C-2.57330395 5.14660791 -2.57330395 5.14660791 0 0 Z " fill="#FCFDFF" transform="translate(547,262)"/>
</svg>
